<svg width="235" height="236" viewBox="0 0 235 236" fill="none" xmlns="http://www.w3.org/2000/svg">
<g id="checkmark-badge-02">
<path id="Vector" d="M185.949 186.835H186.042M185.949 186.835C179.852 192.907 168.802 191.394 161.053 191.394C151.541 191.394 146.961 193.263 140.172 200.08C134.392 205.886 126.643 216.335 117.501 216.335C108.358 216.335 100.609 205.886 94.8287 200.08C88.0403 193.263 83.4598 191.394 73.9479 191.394C66.199 191.394 55.1491 192.907 49.0519 186.835C42.9059 180.714 44.4184 169.571 44.4184 161.739C44.4184 151.842 42.263 147.291 35.2446 140.242C24.8043 129.758 19.5842 124.515 19.584 118.001C19.5841 111.487 24.8041 106.245 35.2443 95.76C41.5095 89.4681 44.4184 83.2334 44.4184 74.2632C44.4184 66.481 42.9125 55.384 48.959 49.2608C55.0536 43.0888 66.1492 44.6079 73.9481 44.6079C82.88 44.6079 89.0884 41.6868 95.3534 35.3951C105.794 24.9103 111.014 19.668 117.501 19.668C123.988 19.668 129.208 24.9103 139.647 35.3951C145.911 41.6855 152.119 44.6079 161.053 44.6079C168.802 44.6079 179.853 43.0956 185.95 49.168C192.096 55.2885 190.583 66.4313 190.583 74.2632C190.583 84.1607 192.739 88.7114 199.757 95.76C210.197 106.245 215.417 111.487 215.417 118.001C215.417 124.515 210.197 129.758 199.757 140.242C192.738 147.291 190.583 151.842 190.583 161.739C190.583 169.571 192.096 180.714 185.949 186.835Z" stroke="url(#paint0_linear_2287_26825)" stroke-width="3"/>
<path id="Vector_2" d="M88.125 126.781L105.75 142.585L146.875 93.418" stroke="url(#paint1_linear_2287_26825)" stroke-width="3" stroke-linecap="round" stroke-linejoin="round"/>
</g>
<defs>
<linearGradient id="paint0_linear_2287_26825" x1="189.285" y1="115.546" x2="47.2903" y2="115.546" gradientUnits="userSpaceOnUse">
<stop stop-color="#7C4ACF"/>
<stop offset="0.375" stop-color="#69B7FA"/>
<stop offset="0.765" stop-color="#FFA96E"/>
<stop offset="1" stop-color="#FE506F"/>
</linearGradient>
<linearGradient id="paint1_linear_2287_26825" x1="139.035" y1="117.388" x2="96.4369" y2="117.388" gradientUnits="userSpaceOnUse">
<stop stop-color="#7C4ACF"/>
<stop offset="0.375" stop-color="#69B7FA"/>
<stop offset="0.765" stop-color="#FFA96E"/>
<stop offset="1" stop-color="#FE506F"/>
</linearGradient>
</defs>
</svg>
