<svg width="93" height="93" viewBox="0 0 93 93" fill="none" xmlns="http://www.w3.org/2000/svg">
<g id="Clip path group">
<g id="Group">
<g id="Group_2">
<g id="Group_3">
<path id="Vector" d="M46.5688 92.3504C46.5688 92.3504 46.5688 74.0104 46.5688 46.477C46.5688 18.9904 46.5688 0.650391 46.5688 0.650391C72.7606 0.650391 92.3615 23.0023 92.3615 46.3858C92.3615 70.5716 72.5313 92.3504 46.5688 92.3504Z" fill="#FF9F00"/>
</g>
</g>
<g id="Group_4">
<g id="Group_5">
<path id="Vector_2" d="M92.4754 46.5004C92.4754 71.8224 71.9474 92.3504 46.6254 92.3504C21.3034 92.3504 0.775391 71.8224 0.775391 46.5004C0.775391 21.1784 21.3034 0.650391 46.6254 0.650391C71.9474 0.650391 92.4754 21.1784 92.4754 46.5004Z" fill="url(#paint0_linear_1074_20382)"/>
</g>
</g>
<g id="Group_6">
<g id="Group_7">
<path id="Vector_3" d="M83.3058 46.5023C83.3058 66.7602 66.8837 83.1823 46.6258 83.1823C26.3679 83.1823 9.9458 66.7602 9.9458 46.5023C9.9458 26.2444 26.3679 9.82227 46.6258 9.82227C66.8837 9.82227 83.3058 26.2444 83.3058 46.5023Z" fill="#FFBB00"/>
</g>
</g>
<g id="Group_8">
<g id="Group_9">
<path id="Vector_4" d="M79.8692 46.502C79.8692 64.8608 64.9868 79.7432 46.628 79.7432C28.2692 79.7432 13.3867 64.8608 13.3867 46.502C13.3867 28.1432 28.2692 13.2607 46.628 13.2607C64.9868 13.2607 79.8692 28.1432 79.8692 46.502Z" fill="url(#paint1_linear_1074_20382)"/>
</g>
</g>
<g id="Group_10">
<g id="Group_11">
<path id="Vector_5" d="M48.2878 25.4011L53.7848 36.5395C54.1392 37.2579 54.8246 37.7563 55.6179 37.8714L67.9102 39.6577C68.9088 39.8026 69.3073 41.0296 68.5847 41.7338L59.6902 50.404C59.1167 50.9634 58.8549 51.769 58.9901 52.559L61.0896 64.8014C61.2602 65.7959 60.2166 66.5543 59.3234 66.0847L48.3291 60.3044C47.6198 59.9317 46.7725 59.9317 46.0632 60.3044L35.0688 66.0847C34.1756 66.5543 33.1321 65.7959 33.3027 64.8014L35.4021 52.559C35.5374 51.769 35.2756 50.9634 34.702 50.404L25.8076 41.7338C25.085 41.0296 25.4834 39.8026 26.482 39.6577L38.7744 37.8714C39.5676 37.7563 40.2531 37.2579 40.6075 36.5395L46.1044 25.4011C46.551 24.4965 47.8412 24.4965 48.2878 25.4011Z" fill="url(#paint2_linear_1074_20382)"/>
</g>
</g>
<g id="Group_12">
<g id="Group_13">
<path id="Vector_6" d="M54.9326 37.6824C55.2874 38.4009 55.9729 38.8993 56.7661 39.0144L68.9503 40.7851C68.9145 40.2478 68.5289 39.7443 67.9118 39.6545L55.6199 37.8681C55.3672 37.8315 55.1325 37.7439 54.9092 37.6348L54.9326 37.6824Z" fill="#E26500"/>
</g>
<g id="Group_14">
<path id="Vector_7" d="M34.4494 65.9468L36.5489 53.7044C36.6841 52.9144 36.4228 52.1088 35.8487 51.5494L34.8093 50.5361C35.2999 51.0868 35.5282 51.825 35.4026 52.5581L33.3031 64.8005C33.172 65.5644 33.7584 66.1829 34.4421 66.2187C34.4375 66.1297 34.4333 66.0408 34.4494 65.9468Z" fill="#E26500"/>
</g>
<g id="Group_15">
<path id="Vector_8" d="M27.6283 40.804L39.9202 39.0177C40.7134 38.9026 41.3988 38.4042 41.7537 37.6857L47.2507 26.5474C47.5065 26.0288 48.0384 25.8179 48.5308 25.8936L48.2878 25.4011C47.8412 24.4965 46.551 24.4965 46.1044 25.4011L40.6075 36.5395C40.2526 37.2579 39.5671 37.7563 38.7739 37.8714L26.482 39.6577C25.4834 39.8026 25.085 41.0296 25.8076 41.7338L26.8649 42.765C26.2853 42.0502 26.6801 40.9415 27.6283 40.804Z" fill="#E26500"/>
</g>
</g>
<g id="Mask group">
<mask id="mask0_1074_20382" style="mask-type:alpha" maskUnits="userSpaceOnUse" x="0" y="0" width="93" height="93">
<g id="Group_16">
<g id="__lottie_element_2839">
<g id="Group_17">
<g id="Group_18">
<path id="Vector_9" d="M46.6244 0.650391C21.3024 0.650391 0.774414 21.1779 0.774414 46.5004C0.774414 71.8224 21.3024 92.3504 46.6244 92.3504C71.9464 92.3504 92.4744 71.8224 92.4744 46.5004C92.4744 21.1779 71.9464 0.650391 46.6244 0.650391ZM46.6244 83.1804C26.3665 83.1804 9.94441 66.7583 9.94441 46.5004C9.94441 26.2425 26.3665 9.82039 46.6244 9.82039C66.8823 9.82039 83.3044 26.2425 83.3044 46.5004C83.3044 66.7583 66.8823 83.1804 46.6244 83.1804Z" fill="#231526"/>
</g>
<g id="Group_19">
<path id="Vector_10" d="M46.627 13.2607C28.2682 13.2607 13.3857 28.1432 13.3857 46.502C13.3857 64.8608 28.2682 79.7432 46.627 79.7432C64.9858 79.7432 79.8682 64.8608 79.8682 46.502C79.8682 28.1432 64.9858 13.2607 46.627 13.2607Z" fill="#231526"/>
</g>
</g>
</g>
</g>
</mask>
<g mask="url(#mask0_1074_20382)">
<g id="Group_20">
<g id="Group_21" opacity="0.5">
<g id="Group_22">
<path id="Vector_11" d="M153.099 19.1493L129.522 47.2478L41.019 -27.0146L64.5965 -55.1132L153.099 19.1493Z" fill="white"/>
</g>
</g>
</g>
</g>
</g>
</g>
</g>
<defs>
<linearGradient id="paint0_linear_1074_20382" x1="22.2928" y1="7.96851" x2="77.3825" y2="80.7976" gradientUnits="userSpaceOnUse">
<stop stop-color="#FFEA00"/>
<stop offset="0.5" stop-color="#FFC700"/>
<stop offset="1" stop-color="#FFA500"/>
</linearGradient>
<linearGradient id="paint1_linear_1074_20382" x1="28.6658" y1="18.3322" x2="69.4429" y2="71.6998" gradientUnits="userSpaceOnUse">
<stop stop-color="#FFE900"/>
<stop offset="0.5" stop-color="#FFC700"/>
<stop offset="1" stop-color="#FFA600"/>
</linearGradient>
<linearGradient id="paint2_linear_1074_20382" x1="47.0815" y1="24.4933" x2="47.0815" y2="65.9981" gradientUnits="userSpaceOnUse">
<stop stop-color="#FFAD00"/>
<stop offset="0.5" stop-color="#FF8F00"/>
<stop offset="1" stop-color="#FF7100"/>
</linearGradient>
</defs>
</svg>
