<svg width="109" height="45" viewBox="0 0 109 45" fill="none" xmlns="http://www.w3.org/2000/svg">
<path id="Union" fill-rule="evenodd" clip-rule="evenodd" d="M25.9486 17.3179C26.8703 14.5539 29.5997 10.7037 33.6759 7.5375C37.732 4.38694 43.0221 1.99219 49 1.99219C65.0163 1.99219 78 14.9759 78 30.9922C78 31.5445 78.4477 31.9922 79 31.9922C79.5523 31.9922 80 31.5445 80 30.9922C80 13.8714 66.1208 -0.0078125 49 -0.0078125C42.4779 -0.0078125 36.768 2.6033 32.4491 5.958C28.1503 9.29706 25.1297 13.4515 24.0514 16.6852C23.8766 17.2091 24.1597 17.7755 24.6837 17.9502C25.2076 18.1249 25.7739 17.8418 25.9486 17.3179ZM84.1113 18.0039C83.559 18.0039 83.1113 18.4516 83.1113 19.0039C83.1113 19.5562 83.559 20.0039 84.1113 20.0039C96.4149 20.0039 106.458 29.7613 106.979 42.0039L2.01945 42.0039C2.47623 30.1986 10.9184 21.0117 21 21.0117C23.0444 21.0117 25.1384 21.6969 26.8035 22.5277C27.6305 22.9404 28.3284 23.3774 28.838 23.7591C29.0933 23.9503 29.2907 24.1197 29.4298 24.2571C29.5438 24.3698 29.5912 24.4344 29.6038 24.4514C29.6056 24.4539 29.6067 24.4554 29.6071 24.4558C29.6077 24.4565 29.6071 24.4552 29.6054 24.4518C29.8522 24.9459 30.4528 25.1464 30.9468 24.8996C31.4409 24.6528 31.6414 24.0522 31.3946 23.5581C31.2586 23.2858 31.0412 23.0378 30.8358 22.8348C30.6155 22.617 30.3442 22.3884 30.037 22.1583C29.4216 21.6974 28.6195 21.1987 27.6965 20.7381C25.8616 19.8226 23.4556 19.0117 21 19.0117C9.27536 19.0117 0 29.8927 0 43.0117C0 43.564 0.447716 44.0117 1 44.0117C1.04254 44.0117 1.08446 44.0091 1.12561 44.0039L107.996 44.0039L108 44.0039C108.553 44.0039 109 43.5562 109 43.0039C109 29.2012 97.8615 18.0039 84.1113 18.0039Z" fill="url(#paint0_linear_1173_23047)"/>
<defs>
<linearGradient id="paint0_linear_1173_23047" x1="94.4552" y1="21.4525" x2="15.4213" y2="21.4525" gradientUnits="userSpaceOnUse">
<stop stop-color="#7C4ACF"/>
<stop offset="0.375" stop-color="#69B7FA"/>
<stop offset="0.765" stop-color="#FFA96E"/>
<stop offset="1" stop-color="#FE506F"/>
</linearGradient>
</defs>
</svg>
