<svg width="94" height="94" viewBox="0 0 94 94" fill="none" xmlns="http://www.w3.org/2000/svg">
<g id="Group 1000003868">
<g id="Group">
<path id="Vector" d="M47 94C72.9574 94 94 72.9574 94 47C94 21.0426 72.9574 0 47 0C21.0426 0 0 21.0426 0 47C0 72.9574 21.0426 94 47 94Z" fill="#627EEA"/>
<g id="Group_2">
<path id="Vector_2" d="M48.4629 11.75V37.8056L70.4853 47.6462L48.4629 11.75Z" fill="white" fill-opacity="0.602"/>
<path id="Vector_3" d="M48.4629 11.75L26.4375 47.6462L48.4629 37.8056V11.75Z" fill="white"/>
<path id="Vector_4" d="M48.4629 64.5301V82.2344L70.5 51.7461L48.4629 64.5301Z" fill="white" fill-opacity="0.602"/>
<path id="Vector_5" d="M48.4629 82.2344V64.5272L26.4375 51.7461L48.4629 82.2344Z" fill="white"/>
<path id="Vector_6" d="M48.4629 60.4322L70.4853 47.6453L48.4629 37.8105V60.4322Z" fill="white" fill-opacity="0.2"/>
<path id="Vector_7" d="M26.4375 47.6453L48.4629 60.4322V37.8105L26.4375 47.6453Z" fill="white" fill-opacity="0.602"/>
</g>
</g>
</g>
</svg>
