<svg width="87" height="88" viewBox="0 0 87 88" fill="none" xmlns="http://www.w3.org/2000/svg">
<g id="Group 1000004084">
<path id="Vector" d="M75.7229 0.984375H11.3131C5.39276 0.984375 0.578125 5.8195 0.578125 11.765V76.449C0.578125 82.3946 5.39276 87.2297 11.3131 87.2297H75.7229C81.6432 87.2297 86.4578 82.3946 86.4578 76.449V11.765C86.4578 5.8195 81.6432 0.984375 75.7229 0.984375Z" fill="#1976D2"/>
<path id="Vector_2" fill-rule="evenodd" clip-rule="evenodd" d="M73.0393 44.1079H59.6206V33.3272C59.6206 30.3518 62.0252 30.6321 64.9881 30.6321H70.3556V17.1562H59.6206C55.35 17.1563 51.2543 18.86 48.2345 21.8926C45.2147 24.9253 43.5182 29.0384 43.5182 33.3272V44.1079H32.7832V57.5837H43.5182V87.2306H59.6206V57.5837H67.6718L73.0393 44.1079Z" fill="#FAFAFA"/>
</g>
</svg>
