<svg width="16" height="16" viewBox="0 0 16 16" fill="none" xmlns="http://www.w3.org/2000/svg">
<path id="filter_alt" d="M7.3879 15.7378C7.12657 15.7378 6.90752 15.6494 6.73074 15.4726C6.55396 15.2958 6.46557 15.0767 6.46557 14.8154V9.28144L1.11605 2.4562C0.88547 2.14875 0.850883 1.82594 1.01229 1.48775C1.1737 1.14956 1.45424 0.980469 1.85392 0.980469H14.7665C15.1662 0.980469 15.4468 1.14956 15.6082 1.48775C15.7696 1.82594 15.735 2.14875 15.5044 2.4562L10.1549 9.28144V14.8154C10.1549 15.0767 10.0665 15.2958 9.88972 15.4726C9.71294 15.6494 9.49389 15.7378 9.23256 15.7378H7.3879ZM8.31023 8.63581L12.8758 2.82513H3.74469L8.31023 8.63581Z" fill="#A29E9E"/>
</svg>
