<svg width="44" height="44" viewBox="0 0 44 44" fill="none" xmlns="http://www.w3.org/2000/svg">
<g id="folder-plus">
<path id="Vector" d="M10.9961 5.48242C7.95844 5.48242 5.49609 7.94459 5.49609 10.9824V14.6491V31.1491C5.49609 35.1989 8.77941 38.4824 12.8294 38.4824H31.1628C35.2128 38.4824 38.4963 35.1989 38.4961 31.1491V14.6491C38.4961 13.6371 37.6753 12.8158 36.6628 12.8158H27.4961C26.1125 12.8158 25.6672 12.3666 24.5741 10.1794C22.9173 6.86658 21.529 5.48242 18.3294 5.48242H10.9961ZM10.9961 9.14909H18.3294C19.713 9.14909 20.1584 9.59826 21.2514 11.7854C21.4906 12.2639 21.5898 12.4161 21.8241 12.8158H14.6056C13.593 12.8158 12.772 13.6371 12.7722 14.6491C12.7722 15.6611 13.593 16.4824 14.6056 16.4824H27.4961H34.8294V31.1491C34.8294 33.1749 33.1879 34.8158 31.1628 34.8158H12.8294C10.8043 34.8158 9.16258 33.1749 9.16276 31.1491V14.6491V10.9824C9.16276 9.97042 9.98354 9.14909 10.9961 9.14909ZM21.9961 20.1491C20.9835 20.1491 20.1628 20.9704 20.1628 21.9824V23.8158H18.3294C17.3169 23.8158 16.4961 24.6371 16.4961 25.6491C16.4961 26.6611 17.3169 27.4824 18.3294 27.4824H20.1628V29.3158C20.1628 30.3278 20.9835 31.1491 21.9961 31.1491C23.0086 31.1491 23.8294 30.3278 23.8294 29.3158V27.4824H25.6628C26.6753 27.4824 27.4961 26.6611 27.4961 25.6491C27.4961 24.6371 26.6753 23.8158 25.6628 23.8158H23.8294V21.9824C23.8294 20.9704 23.0086 20.1491 21.9961 20.1491Z" fill="url(#paint0_linear_1074_23678)"/>
</g>
<defs>
<linearGradient id="paint0_linear_1074_23678" x1="5.97023" y1="32.3924" x2="38.4961" y2="32.3924" gradientUnits="userSpaceOnUse">
<stop stop-color="#7C4ACF"/>
<stop offset="1" stop-color="#69B7FA"/>
</linearGradient>
</defs>
</svg>
