<svg width="35" height="55" viewBox="0 0 35 55" fill="none" xmlns="http://www.w3.org/2000/svg">
<g id="Group">
<path id="Vector" d="M20.7294 25.3247H14.3203C15.1575 26.1331 16.0814 26.9125 17.1207 27.692V31.5895H17.9579V27.692C18.9684 26.9125 19.8922 26.1331 20.7294 25.3247Z" fill="#A0C7EA"/>
<path id="Vector_2" d="M28.0936 49.7693C28.0936 49.7693 28.0936 49.7693 17.4984 49.7693C6.90314 49.7693 6.90314 49.7693 6.90314 49.7693C6.90314 49.7693 5.0266 38.308 17.4984 29.3872C29.9701 38.3369 28.0936 49.7693 28.0936 49.7693Z" fill="#2181FA"/>
<path id="Vector_3" d="M32.137 49.2532C33.6094 37.763 25.497 30.7477 22.3213 28.4958C32.6567 19.4307 32.2525 9.12415 31.7617 5.74638H31.9349C33.3784 5.74638 34.5332 4.59158 34.5332 3.14809C34.5332 1.7046 33.3784 0.549805 31.9349 0.549805H3.06508C1.62159 0.549805 0.466797 1.7046 0.466797 3.14809C0.466797 4.59158 1.62159 5.74638 3.06508 5.74638H3.2383C2.77638 9.12415 2.34334 19.4307 12.6787 28.4958C9.53193 30.7477 1.4195 37.763 2.86299 49.2532C1.50611 49.3398 0.466797 50.4658 0.466797 51.8515C0.466797 53.295 1.62159 54.4498 3.06508 54.4498H31.9349C33.3784 54.4498 34.5332 53.295 34.5332 51.8515C34.5332 50.4658 33.465 49.3398 32.137 49.2532ZM14.9306 29.4774C15.2193 29.3042 15.4214 29.0155 15.4502 28.669C15.4791 28.3226 15.3348 28.005 15.0749 27.7741C4.04666 18.8533 4.91275 8.37353 5.3458 5.71751H29.6831C30.1161 8.37353 30.9822 18.8244 19.9539 27.7741C19.6941 28.005 19.5498 28.3226 19.5786 28.669C19.6075 29.0155 19.8096 29.3042 20.0983 29.4774C20.2138 29.5351 31.8483 36.2907 30.0584 49.2244H4.97049C3.15169 36.3484 14.4398 29.7661 14.9306 29.4774Z" fill="#2D2F31"/>
</g>
</svg>
