<svg width="17" height="18" viewBox="0 0 17 18" fill="none" xmlns="http://www.w3.org/2000/svg">
<g id="Group 1000003671">
<circle id="Ellipse 3954" cx="8.40839" cy="8.77558" r="8.30097" fill="white"/>
<g id="info_i">
<mask id="mask0_1073_19122" style="mask-type:alpha" maskUnits="userSpaceOnUse" x="3" y="4" width="11" height="10">
<rect id="Bounding box" x="3.79688" y="4.16211" width="9.2233" height="9.2233" fill="#D9D9D9"/>
</mask>
<g mask="url(#mask0_1073_19122)">
<path id="info_i_2" d="M8.40923 6.85167C8.19787 6.85167 8.01692 6.77641 7.8664 6.62589C7.71588 6.47537 7.64062 6.29443 7.64062 6.08306C7.64062 5.87169 7.71588 5.69075 7.8664 5.54023C8.01692 5.38971 8.19787 5.31445 8.40923 5.31445C8.6206 5.31445 8.80154 5.38971 8.95206 5.54023C9.10258 5.69075 9.17784 5.87169 9.17784 6.08306C9.17784 6.29443 9.10258 6.47537 8.95206 6.62589C8.80154 6.77641 8.6206 6.85167 8.40923 6.85167ZM7.83278 12.2319V7.62028H8.98569V12.2319H7.83278Z" fill="#2D2F31"/>
</g>
</g>
</g>
</svg>
