<svg width="87" height="88" viewBox="0 0 87 88" fill="none" xmlns="http://www.w3.org/2000/svg">
<g id="Group 1000004082">
<path id="Path 16" d="M22.1266 86.9236C18.8049 86.8864 15.5144 86.2746 12.3996 85.115C10.125 84.2707 8.0671 82.9265 6.37629 81.1808C4.63326 79.4861 3.2928 77.4189 2.45448 75.1327C1.3008 72.0047 0.692436 68.7005 0.656079 65.365C0.400968 59.82 0.349609 58.1569 0.349609 44.1066C0.349609 30.0564 0.40602 28.3991 0.653553 22.8499C0.694323 19.5158 1.30344 16.2133 2.45448 13.0857C3.29688 10.801 4.63544 8.73352 6.37292 7.03333C8.06164 5.28445 10.1205 3.93954 12.3971 3.09821C15.5119 1.93866 18.8024 1.32684 22.1241 1.28961C27.6473 1.03595 29.3059 0.984375 43.289 0.984375C57.2721 0.984375 58.9299 1.04103 64.4557 1.28961C67.7765 1.33027 71.0659 1.94198 74.181 3.09821C76.4566 3.94065 78.5149 5.28509 80.2043 7.03248C81.9448 8.72967 83.2841 10.7973 84.1236 13.0831C85.2785 16.2112 85.888 19.5157 85.9254 22.8516C86.178 28.4008 86.2293 30.0623 86.2293 44.1083C86.2293 58.1543 86.178 59.8158 85.9254 65.365C85.8853 68.7004 85.2759 72.0042 84.1236 75.1327C83.252 77.4014 81.9171 79.4617 80.2046 81.1809C78.4922 82.9002 76.4403 84.2403 74.181 85.115C71.0663 86.2749 67.7758 86.887 64.454 86.9245C58.9333 87.1781 57.2738 87.2297 43.2874 87.2297C29.3009 87.2297 27.6465 87.1807 22.1258 86.9245" fill="url(#paint0_radial_2287_26930)"/>
<path id="Path 17" d="M22.1266 86.9236C18.8049 86.8864 15.5144 86.2746 12.3996 85.115C10.125 84.2707 8.0671 82.9265 6.37629 81.1808C4.63326 79.4861 3.2928 77.4189 2.45448 75.1327C1.3008 72.0047 0.692436 68.7005 0.656079 65.365C0.400968 59.82 0.349609 58.1569 0.349609 44.1066C0.349609 30.0564 0.40602 28.3991 0.653553 22.8499C0.694323 19.5158 1.30344 16.2133 2.45448 13.0857C3.29688 10.801 4.63544 8.73352 6.37292 7.03333C8.06164 5.28445 10.1205 3.93954 12.3971 3.09821C15.5119 1.93866 18.8024 1.32684 22.1241 1.28961C27.6473 1.03595 29.3059 0.984375 43.289 0.984375C57.2721 0.984375 58.9299 1.04103 64.4557 1.28961C67.7765 1.33027 71.0659 1.94198 74.181 3.09821C76.4566 3.94065 78.5149 5.28509 80.2043 7.03248C81.9448 8.72967 83.2841 10.7973 84.1236 13.0831C85.2785 16.2112 85.888 19.5157 85.9254 22.8516C86.178 28.4008 86.2293 30.0623 86.2293 44.1083C86.2293 58.1543 86.178 59.8158 85.9254 65.365C85.8853 68.7004 85.2759 72.0042 84.1236 75.1327C83.252 77.4014 81.9171 79.4617 80.2046 81.1809C78.4922 82.9002 76.4403 84.2403 74.181 85.115C71.0663 86.2749 67.7758 86.887 64.454 86.9245C58.9333 87.1781 57.2738 87.2297 43.2874 87.2297C29.3009 87.2297 27.6465 87.1807 22.1258 86.9245" fill="url(#paint1_radial_2287_26930)"/>
<path id="Path 18" d="M32.7437 44.2881C32.7438 42.1758 33.3677 40.111 34.5365 38.3547C35.7052 36.5985 37.3663 35.2297 39.3096 34.4216C41.2529 33.6134 43.3913 33.4022 45.4542 33.8145C47.5171 34.2268 49.4119 35.2442 50.8991 36.738C52.3862 38.2318 53.3988 40.135 53.8089 42.2068C54.219 44.2786 54.0081 46.426 53.2029 48.3774C52.3977 50.3288 51.0344 51.9966 49.2853 53.1699C47.5363 54.3432 45.48 54.9693 43.3767 54.9689C40.5563 54.9685 37.8516 53.8429 35.8576 51.8399C33.8635 49.8369 32.7435 47.1205 32.7437 44.2881ZM26.994 44.2881C26.994 47.5421 27.9548 50.723 29.755 53.4286C31.5551 56.1342 34.1137 58.243 37.1073 59.4882C40.1008 60.7334 43.3948 61.0592 46.5727 60.4244C49.7507 59.7896 52.6698 58.2226 54.9609 55.9217C57.2521 53.6208 58.8124 50.6893 59.4445 47.4979C60.0766 44.3064 59.7522 40.9984 58.5123 37.9921C57.2723 34.9858 55.1725 32.4163 52.4784 30.6085C49.7843 28.8006 46.6168 27.8357 43.3767 27.8357C41.2252 27.8356 39.0948 28.2611 37.1072 29.0879C35.1195 29.9146 33.3134 31.1265 31.7921 32.6543C30.2708 34.182 29.0641 35.9958 28.2408 37.9919C27.4176 39.9881 26.9939 42.1275 26.994 44.2881ZM56.5793 27.1838C56.5789 27.9442 56.8031 28.6876 57.2235 29.3201C57.6439 29.9525 58.2416 30.4456 58.941 30.7369C59.6404 31.0282 60.4101 31.1046 61.1528 30.9566C61.8955 30.8086 62.5778 30.4427 63.1135 29.9053C63.6491 29.3678 64.014 28.683 64.1621 27.9372C64.3101 27.1915 64.2346 26.4184 63.9452 25.7158C63.6557 25.0132 63.1653 24.4125 62.5359 23.9898C61.9065 23.567 61.1665 23.3412 60.4093 23.3409C59.3944 23.3413 58.4211 23.7463 57.7033 24.4668C56.9855 25.1874 56.5818 26.1646 56.5809 27.1838M30.4889 70.3686C28.4658 70.3463 26.4616 69.9745 24.5641 69.2695C23.188 68.7368 21.9382 67.9207 20.8952 66.8736C19.8521 65.8266 19.039 64.5718 18.508 63.1901C17.8056 61.2846 17.4354 59.2718 17.4135 57.24C17.2585 53.863 17.2282 52.8483 17.2282 44.2924C17.2282 35.7364 17.2619 34.7243 17.4135 31.3439C17.438 29.3124 17.8082 27.3 18.508 25.3938C19.0383 24.0114 19.8513 22.756 20.8944 21.7085C21.9375 20.6609 23.1876 19.8445 24.5641 19.3119C26.4615 18.6065 28.4658 18.2347 30.4889 18.2127C33.8517 18.0571 34.862 18.0267 43.3783 18.0267C51.8947 18.0267 52.9058 18.0597 56.2719 18.2136C58.2948 18.2382 60.2986 18.61 62.1968 19.3127C63.5733 19.8454 64.8233 20.6618 65.8664 21.7094C66.9095 22.7569 67.7225 24.0123 68.2529 25.3947C68.9552 27.3002 69.3255 29.313 69.3474 31.3447C69.5023 34.7268 69.5327 35.7364 69.5327 44.2932C69.5327 52.85 69.5015 53.8613 69.3474 57.2417C69.3239 59.2733 68.9537 61.2858 68.2529 63.1917C67.7219 64.5735 66.9087 65.8283 65.8657 66.8753C64.8227 67.9224 63.5729 68.7385 62.1968 69.2711C60.2993 69.9765 58.2951 70.3483 56.2719 70.3703C52.9092 70.5259 51.8989 70.5564 43.3783 70.5564C34.8578 70.5564 33.8508 70.5251 30.4889 70.3703M30.2246 12.4436C27.5773 12.4959 24.9581 12.9991 22.4786 13.9318C20.359 14.7548 18.4341 16.0135 16.8271 17.6273C15.2202 19.241 13.9668 21.1742 13.1473 23.3028C12.2187 25.7929 11.7176 28.4233 11.6655 31.0817C11.508 34.4977 11.4727 35.5901 11.4727 44.2915C11.4727 52.9929 11.5089 54.0845 11.6655 57.5013C11.7176 60.1598 12.2187 62.7901 13.1473 65.2802C13.9669 67.4088 15.2203 69.3419 16.8272 70.9557C18.4341 72.5695 20.359 73.8282 22.4786 74.6513C24.9583 75.5835 27.5774 76.0867 30.2246 76.1394C33.6277 76.295 34.7138 76.3331 43.3783 76.3331C52.0428 76.3331 53.1298 76.2967 56.5321 76.1394C59.1793 76.0869 61.7985 75.5837 64.278 74.6513C66.3976 73.8282 68.3226 72.5695 69.9295 70.9557C71.5364 69.3419 72.7898 67.4088 73.6094 65.2802C74.5392 62.7904 75.0403 60.1599 75.0912 57.5013C75.2461 54.0828 75.2815 52.9929 75.2815 44.2915C75.2815 35.5901 75.2453 34.4985 75.0912 31.0817C75.0392 28.4232 74.5381 25.7929 73.6094 23.3028C72.7899 21.1746 71.5368 19.2417 69.9303 17.628C68.3239 16.0143 66.3996 14.7553 64.2806 13.9318C61.8012 12.9985 59.1819 12.4953 56.5346 12.4436C53.1323 12.2872 52.0454 12.25 43.3825 12.25C34.7197 12.25 33.6302 12.2864 30.2262 12.4436" fill="white"/>
</g>
<defs>
<radialGradient id="paint0_radial_2287_26930" cx="0" cy="0" r="1" gradientUnits="userSpaceOnUse" gradientTransform="translate(5.90732 85.3399) scale(109.034 109.498)">
<stop offset="0.09" stop-color="#FA8F21"/>
<stop offset="0.78" stop-color="#D82D7E"/>
</radialGradient>
<radialGradient id="paint1_radial_2287_26930" cx="0" cy="0" r="1" gradientUnits="userSpaceOnUse" gradientTransform="translate(59.835 82.57) scale(95.9511 96.3596)">
<stop offset="0.64" stop-color="#8C3AAA" stop-opacity="0"/>
<stop offset="1" stop-color="#8C3AAA"/>
</radialGradient>
</defs>
</svg>
