<svg width="44" height="44" viewBox="0 0 44 44" fill="none" xmlns="http://www.w3.org/2000/svg">
<g id="lightbulb">
<path id="Vector" d="M21.9954 3.58008C14.9078 3.58008 9.16211 9.32575 9.16211 16.4134C9.16211 20.0049 10.1613 22.1444 12.3704 24.7203C12.4731 24.8413 12.8526 25.3014 12.9425 25.4078C14.246 26.9276 14.6621 27.7562 14.6621 29.2467V32.9134C14.6621 36.9632 17.9456 40.2467 21.9954 40.2467C26.0453 40.2467 29.3288 36.9632 29.3288 32.9134V29.2467C29.3288 27.7562 29.7449 26.9276 31.0484 25.4078C31.1383 25.3014 31.5178 24.8413 31.6204 24.7203C33.8296 22.1444 34.8288 20.0049 34.8288 16.4134C34.8288 9.32575 29.0831 3.58008 21.9954 3.58008ZM21.9954 7.24674C27.0573 7.24674 31.1621 11.3516 31.1621 16.4134C31.1621 19.0094 30.5571 20.3459 28.8704 22.3149C28.7751 22.4249 28.3388 22.8869 28.2398 23.0024C26.9326 24.5277 26.1717 25.8991 25.8399 27.4244C23.5152 27.4244 20.4701 27.4336 18.1454 27.4336C17.8136 25.9064 17.0583 24.5277 15.7511 23.0024C15.6521 22.8869 15.2158 22.4249 15.1204 22.3149C13.4338 20.3459 12.8288 19.0094 12.8288 16.4134C12.8288 11.3516 16.9336 7.24674 21.9954 7.24674ZM21.9954 10.9134C18.9576 10.9134 16.4954 13.3756 16.4954 16.4134C16.4954 17.4254 17.3168 18.2467 18.3288 18.2467C19.3408 18.2467 20.1621 17.4254 20.1621 16.4134C20.1621 15.4014 20.9834 14.5801 21.9954 14.5801C23.0074 14.5801 23.8288 13.7587 23.8288 12.7467C23.8288 11.7347 23.0074 10.9134 21.9954 10.9134ZM18.3288 31.0801C20.5948 31.0801 23.3961 31.0801 25.6621 31.0801V32.9134C25.6621 34.9392 24.0213 36.5801 21.9954 36.5801C19.9696 36.5801 18.3288 34.9392 18.3288 32.9134V31.0801Z" fill="url(#paint0_linear_2254_17216)"/>
</g>
<defs>
<linearGradient id="paint0_linear_2254_17216" x1="9.53088" y1="33.48" x2="34.8288" y2="33.48" gradientUnits="userSpaceOnUse">
<stop stop-color="#7C4ACF"/>
<stop offset="1" stop-color="#69B7FA"/>
</linearGradient>
</defs>
</svg>
