<svg width="44" height="44" viewBox="0 0 44 44" fill="none" xmlns="http://www.w3.org/2000/svg">
<g id="megaphone">
<path id="Vector" d="M34.8307 7.16212C32.1046 7.16762 30.2767 9.18797 30.0751 9.33831C28.9952 10.1505 27.8219 10.8966 26.5807 11.5163C23.9737 12.8198 21.1467 13.6246 18.3307 14.094C17.3444 14.259 16.4534 14.3799 15.6376 14.4386C15.1609 14.4716 14.8199 14.4955 14.6641 14.4955H10.8837C6.84121 14.4955 3.66406 17.7698 3.66406 21.8288C3.66406 25.8786 6.94756 29.1621 10.9974 29.1621V30.9955C10.9974 34.0333 13.4596 36.4955 16.4974 36.4955C19.5352 36.4955 21.9974 34.0333 21.9974 30.9955L22.0084 30.3703C23.5521 30.8139 25.1324 31.4153 26.5807 32.1413C27.8146 32.7591 29.0007 33.5126 30.0751 34.3175C30.2767 34.4696 32.3191 36.512 34.8307 36.4955C37.8411 36.4753 40.3307 34.1561 40.3307 31.2246V12.433C40.3307 9.50145 37.8777 7.15662 34.8307 7.16212ZM34.8307 10.8288C35.8702 10.8288 36.6641 11.5841 36.6641 12.433V31.2246C36.6641 32.0735 35.8702 32.8288 34.8307 32.8288C33.7912 32.8288 32.9974 32.0735 32.9974 31.2246C32.9974 26.59 32.9974 17.0676 32.9974 12.433C32.9974 11.5841 33.7912 10.8288 34.8307 10.8288ZM29.3307 14.1673C29.3307 18.7781 29.3142 24.8336 29.3142 29.4444C28.9366 29.2336 28.6322 29.0704 28.2417 28.8761C25.2772 27.3893 22.1147 26.4231 18.9614 25.8969C17.0621 25.5798 15.5551 25.4955 14.6641 25.4955V18.1621C15.5551 18.1621 17.0639 18.0778 18.9614 17.7606C22.1129 17.2363 25.2791 16.2628 28.2417 14.7815C28.6341 14.5853 28.9512 14.38 29.3307 14.1673ZM10.8837 18.1621H10.9974V25.4955C8.97156 25.4955 7.33073 23.8546 7.33073 21.8288C7.33073 19.7736 8.88721 18.1621 10.8837 18.1621ZM14.6641 29.1621C14.8199 29.1621 15.1609 29.186 15.6376 29.219C16.4534 29.2776 17.3444 29.3986 18.3307 29.5636V30.9955C18.3307 32.0075 17.5094 32.8288 16.4974 32.8288C15.4854 32.8288 14.6641 32.0075 14.6641 30.9955V29.1621Z" fill="url(#paint0_linear_1074_23667)"/>
</g>
<defs>
<linearGradient id="paint0_linear_1074_23667" x1="4.19088" y1="31.0821" x2="40.3307" y2="31.0821" gradientUnits="userSpaceOnUse">
<stop stop-color="#7C4ACF"/>
<stop offset="1" stop-color="#69B7FA"/>
</linearGradient>
</defs>
</svg>
