<svg width="237" height="236" viewBox="0 0 237 236" fill="none" xmlns="http://www.w3.org/2000/svg">
<g id="power-service">
<path id="Vector" d="M123.417 78.668L98.834 118.001H138.167L113.584 157.335" stroke="url(#paint0_linear_2287_26832)" stroke-width="3" stroke-linecap="round" stroke-linejoin="round"/>
<path id="Vector_2" d="M207.108 139.033C212.24 137.621 214.806 136.915 215.819 135.565C216.833 134.215 216.833 132.043 216.833 127.699V108.299C216.833 103.956 216.833 101.784 215.819 100.433C214.805 99.0833 212.24 98.3772 207.108 96.9651C187.929 91.6877 175.925 71.2296 180.875 51.789C182.236 46.4426 182.917 43.7694 182.267 42.2016C181.617 40.6338 179.752 39.5533 176.021 37.3924L159.062 27.5677C155.402 25.4474 153.572 24.3871 151.93 24.6129C150.287 24.8387 148.434 26.7249 144.727 30.4975C130.378 45.1031 106.636 45.1025 92.287 30.4965C88.5807 26.7239 86.7277 24.8377 85.085 24.6119C83.4424 24.3861 81.6123 25.4464 77.9519 27.5667L60.9924 37.3915C57.2626 39.5522 55.3976 40.6326 54.7477 42.2002C54.0977 43.7678 54.7781 46.4413 56.1388 51.7883C61.0862 71.2294 49.0733 91.6881 29.8914 96.9653C24.7594 98.3772 22.1934 99.0833 21.1796 100.433C20.166 101.784 20.166 103.955 20.166 108.299V127.699C20.166 132.043 20.166 134.215 21.1796 135.565C22.1932 136.915 24.7593 137.621 29.8914 139.033C49.0701 144.311 61.0735 164.769 56.1238 184.209C54.7625 189.556 54.0819 192.229 54.7318 193.797C55.3817 195.364 57.2467 196.445 60.9768 198.605L77.9364 208.431C81.5969 210.551 83.4272 211.611 85.07 211.386C86.7127 211.16 88.5655 209.273 92.271 205.501C106.628 190.882 130.386 190.882 144.744 205.5C148.449 209.273 150.301 211.159 151.944 211.385C153.587 211.61 155.418 210.55 159.078 208.43L176.037 198.604C179.768 196.444 181.633 195.363 182.282 193.795C182.932 192.228 182.252 189.554 180.89 184.208C175.938 164.769 187.932 144.311 207.108 139.033Z" stroke="url(#paint1_linear_2287_26832)" stroke-width="3" stroke-linecap="round"/>
</g>
<defs>
<linearGradient id="paint0_linear_2287_26832" x1="132.919" y1="117.019" x2="104.399" y2="117.019" gradientUnits="userSpaceOnUse">
<stop stop-color="#7C4ACF"/>
<stop offset="0.375" stop-color="#69B7FA"/>
<stop offset="0.765" stop-color="#FFA96E"/>
<stop offset="1" stop-color="#FE506F"/>
</linearGradient>
<linearGradient id="paint1_linear_2287_26832" x1="190.589" y1="115.667" x2="47.9902" y2="115.667" gradientUnits="userSpaceOnUse">
<stop stop-color="#7C4ACF"/>
<stop offset="0.375" stop-color="#69B7FA"/>
<stop offset="0.765" stop-color="#FFA96E"/>
<stop offset="1" stop-color="#FE506F"/>
</linearGradient>
</defs>
</svg>
