<svg width="93" height="93" viewBox="0 0 93 93" fill="none" xmlns="http://www.w3.org/2000/svg">
<g id="Group 1000003551">
<g id="Platinum Trophy">
<g id="6">
<path id="Path 15383" d="M21.1481 46.4975C22.5399 46.8861 23.9547 46.0795 24.8353 45.064C25.8011 43.9501 26.3605 42.9284 26.6299 41.8924C26.8899 40.88 26.8133 40.027 26.5257 39.2949C27.8429 40.4313 28.6824 41.92 28.1009 43.8431C27.7866 44.8878 27.0599 45.9925 25.9441 47.1243C24.9981 48.0826 23.6693 48.7248 22.2843 48.5307C21.0711 48.359 19.2286 47.2912 19.231 45.9081C19.2333 45.4253 19.5187 44.9911 19.8764 44.5747C19.6905 45.4987 20.1297 46.2123 21.1481 46.4978" fill="#B2C6FD"/>
<path id="Path 15384" d="M20.7462 40.0269C18.5847 38.4442 15.9234 37.7405 13.5626 36.5059C11.4014 35.3736 9.42329 33.8368 7.68288 32.1631C4.14019 28.7544 1.33193 24.3117 0.770233 19.4115C0.648558 18.3584 0.638632 17.2952 0.740625 16.2399C0.772544 15.9126 0.822806 15.5839 0.876824 15.2522C1.94562 12.2182 4.28787 9.4053 7.49021 8.6623C10.5747 7.94414 13.7529 9.24291 16.4955 10.7686C16.5002 10.8782 17.0999 11.059 17.1044 11.1682C17.1614 12.4715 16.4028 14.5847 16.4599 15.888C16.3467 15.8136 16.2296 15.7455 16.109 15.684C13.8342 14.5431 8.96356 13.0844 7.41785 15.9381C7.33112 16.1 7.25313 16.2666 7.18423 16.4371C6.96969 16.7022 6.78963 16.994 6.64846 17.3054C5.61801 19.5895 5.59837 21.9567 6.58903 24.3409C9.11492 30.4119 17.322 34.9962 21.7742 36.7476L22.195 36.9099C23.5192 37.4273 25.2415 38.198 26.5177 39.295C26.8053 40.0271 26.8823 40.8802 26.6219 41.8924C26.3525 42.9285 25.7932 43.9501 24.8274 45.064C23.9468 46.0794 22.5319 46.8862 21.1401 46.4976C20.1219 46.212 19.6826 45.4984 19.8684 44.5744C20.4833 43.8569 21.3098 43.1841 21.2893 42.3888C21.5161 42.064 21.6538 41.6983 21.5565 41.1902C21.4659 40.7198 21.1402 40.3171 20.746 40.027" fill="url(#paint0_linear_1074_20513)"/>
<path id="Path 15385" d="M0.256784 17.7829C0.377924 16.9697 0.570985 16.1691 0.833643 15.3909C0.849603 15.3456 0.867947 15.2992 0.884196 15.2539C0.83025 15.5856 0.779988 15.9143 0.747996 16.2417C0.646007 17.2969 0.655932 18.3602 0.777604 19.4133C1.3393 24.3134 4.14749 28.7565 7.69018 32.1648C9.43058 33.8386 11.4087 35.3752 13.5699 36.5077C15.9307 37.7422 18.5921 38.4461 20.7535 40.0287C21.1476 40.3188 21.4597 40.7239 21.5639 41.1919C21.6407 41.5307 21.8127 42.1665 21.1451 43.0372C21.239 42.8344 21.2907 42.6143 21.2967 42.3905C21.2839 42.1027 21.1811 41.8264 21.003 41.6016C20.4861 40.9017 19.5113 40.5062 18.6916 40.2437C15.8699 39.3406 13.3302 38.4692 10.8581 36.9489C4.45578 33.0087 -0.869784 25.365 0.256784 17.7829Z" fill="#B2C6FD"/>
<path id="Path 15386" d="M15.7829 10.3652C16.3247 10.6167 16.8429 10.9174 17.331 11.2638C17.8058 12.3838 18.4442 17.6133 17.4237 17.0259C17.3491 16.9319 17.2359 16.8566 17.0295 16.7173C15.8818 15.9422 12.1365 15.0821 11.4823 15.0043C9.79819 14.8056 8.18922 15.2015 7.19531 16.4293C7.26422 16.2588 7.3422 16.0923 7.42893 15.9303C8.06681 14.7526 9.32323 14.2114 10.588 14.0559C11.2816 13.9782 11.9817 13.9794 12.6751 14.0596C13.402 14.1375 14.1103 14.3984 14.8304 14.467C15.0627 14.4965 15.2981 14.4476 15.5 14.3277C16.3395 13.7857 16.2672 11.8147 16.1447 10.9596C16.1269 10.841 16.0857 10.7273 16.0236 10.6252C15.9615 10.5231 15.8797 10.4347 15.7831 10.3652" fill="#C5D8FD"/>
<path id="Path 15387" d="M1.67182 17.376C2.62688 14.7445 4.66806 12.325 7.4496 11.6806C9.60026 11.1818 11.802 11.7945 13.8233 12.7391C14.0593 12.8494 14.3285 12.8623 14.5738 12.775C14.819 12.6877 15.021 12.5072 15.1368 12.2717C15.2526 12.0363 15.273 11.7644 15.1939 11.5139C15.1147 11.2634 14.9422 11.054 14.7129 10.9301C12.4199 9.71374 9.82175 8.76517 7.29585 9.35031C4.51431 9.99776 2.47313 12.4167 1.51808 15.0486C1.49294 15.1148 1.33219 15.897 1.30728 16.1503C1.21434 17.0764 1.15353 17.1726 1.25781 18.0965C1.27745 18.2705 1.46312 18.519 1.51576 18.3436C1.58798 18.0988 1.64669 17.4421 1.67182 17.376Z" fill="white"/>
<path id="Path 15388" d="M17.0408 36.9316C18.6929 36.8013 21.502 37.4826 22.5949 39.1702C23.3355 40.3111 23.6204 42.0833 22.6787 43.2495C22.5477 43.4097 22.1717 43.9078 21.5492 43.7115C21.1847 43.5946 21.4859 42.9502 21.5605 42.8057C22.7377 40.4717 20.413 38.9027 18.7135 38.167C18.0659 37.8859 17.392 37.7305 16.7357 37.4764C16.6836 37.4601 16.6356 37.4327 16.5948 37.3961C16.5796 37.3744 16.569 37.3499 16.5636 37.3239C16.5582 37.2979 16.5582 37.2711 16.5636 37.2451C16.5681 36.9911 16.941 36.9388 17.0408 36.932" fill="white"/>
<path id="Path 15389" d="M71.629 46.4975C70.2372 46.8861 68.8255 46.0795 67.9427 45.064C66.9762 43.9501 66.4169 42.9284 66.1496 41.8924C65.8879 40.88 65.9647 40.027 66.254 39.2949C64.9342 40.4313 64.0971 41.92 64.6763 43.8431C64.9913 44.8878 65.7175 45.9925 66.8339 47.1243C67.7799 48.0826 69.1079 48.7248 70.4936 48.5307C71.7068 48.359 73.5509 47.2912 73.5462 45.9081C73.544 45.4253 73.2615 44.9911 72.9017 44.5747C73.0874 45.4987 72.6483 46.2123 71.6291 46.4978" fill="#B2C6FD"/>
<path id="Path 15390" d="M72.023 40.0269C74.1865 38.4442 76.8465 37.7405 79.2064 36.5059C81.37 35.3736 83.3465 33.8368 85.0871 32.1631C88.6288 28.7544 91.4378 24.3117 91.9987 19.4115C92.1208 18.3584 92.1307 17.2951 92.0283 16.2399C91.9963 15.9126 91.9468 15.5839 91.8929 15.2522C90.8245 12.2182 88.4819 9.4053 85.2795 8.6623C82.1943 7.94414 79.0192 9.24291 76.2756 10.7686C76.2688 10.8782 75.6713 11.059 75.6645 11.1682C75.6081 12.4715 76.3662 14.5847 76.3099 15.888C76.4228 15.8131 76.54 15.745 76.6608 15.684C78.9346 14.5431 83.8076 13.0844 85.3519 15.9381C85.4388 16.0998 85.5165 16.2664 85.5846 16.4371C85.8005 16.7014 85.9809 16.9933 86.1212 17.3054C87.1532 19.5895 87.1736 21.9567 86.1798 24.3409C83.6539 30.4119 75.4476 34.9962 70.9978 36.7476L70.5769 36.9099C69.2526 37.4273 67.5283 38.198 66.2536 39.295C65.9643 40.0271 65.8875 40.8802 66.1492 41.8924C66.4164 42.9285 66.9758 43.9501 67.9424 45.064C68.8251 46.0794 70.2369 46.8862 71.6286 46.4976C72.6478 46.212 73.0869 45.4984 72.9012 44.5744C72.2855 43.8569 71.4589 43.1841 71.4796 42.3888C71.2535 42.064 71.115 41.6983 71.2124 41.1902C71.303 40.7198 71.6285 40.3171 72.0228 40.027" fill="url(#paint1_linear_1074_20513)"/>
<g id="Clip path group">
<mask id="mask0_1074_20513" style="mask-type:luminance" maskUnits="userSpaceOnUse" x="70" y="15" width="23" height="29">
<g id="clip-path">
<path id="Path 15392" d="M70.9893 15.1982H92.6446V43.1834H70.9893V15.1982Z" fill="white"/>
</g>
</mask>
<g mask="url(#mask0_1074_20513)">
<g id="Group 36442">
<path id="Path 15391" d="M92.5113 17.7663C92.392 16.9527 92.1989 16.152 91.9344 15.3743C91.9184 15.329 91.9001 15.2826 91.8849 15.2373C91.9389 15.569 91.9884 15.8977 92.0203 16.2251C92.1228 17.2803 92.1128 18.3436 91.9907 19.3967C91.4298 24.2968 88.6208 28.7399 85.079 32.1482C83.3386 33.822 81.3619 35.3586 79.1984 36.4911C76.8384 37.7256 74.1785 38.4295 72.0149 40.0121C71.6206 40.3022 71.3086 40.7073 71.2044 41.1753C71.1275 41.5141 70.9578 42.1499 71.6233 43.0206C71.531 42.8173 71.4794 42.5975 71.4716 42.3739C71.4842 42.0859 71.5874 41.8095 71.7662 41.585C72.2844 40.8851 73.2599 40.4896 74.0767 40.2271C76.9016 39.324 79.4411 38.4526 81.91 36.9325C88.3133 32.9925 93.6407 25.3488 92.5113 17.7666" fill="#B2C6FD"/>
</g>
</g>
</g>
<path id="Path 15393" d="M76.9966 10.3652C76.455 10.6156 75.9376 10.9164 75.4511 11.2638C74.9732 12.3838 74.3348 17.6133 75.3583 17.0259C75.4306 16.9319 75.5433 16.8566 75.7496 16.7173C76.8971 15.942 80.643 15.0821 81.299 15.0043C82.981 14.8057 84.5899 15.2016 85.5837 16.4294C85.5155 16.2587 85.4377 16.0921 85.3509 15.9304C84.7124 14.7527 83.4581 14.2114 82.1909 14.056C81.4981 13.9783 80.7989 13.9795 80.1065 14.0597C79.3771 14.1376 78.6694 14.3984 77.9519 14.467C77.7188 14.497 77.4825 14.448 77.2799 14.3277C76.4398 13.7858 76.5144 11.8148 76.6348 10.9596C76.6526 10.8411 76.6939 10.7273 76.7561 10.6252C76.8183 10.5231 76.9002 10.4347 76.9969 10.3653" fill="#C5D8FD"/>
<path id="Path 15394" d="M91.1088 17.376C90.1536 14.7445 88.1119 12.325 85.3301 11.6806C83.1802 11.1818 80.9779 11.7945 78.9566 12.7391C78.7206 12.8494 78.4514 12.8622 78.2062 12.7749C77.9609 12.6877 77.759 12.5072 77.6432 12.2717C77.5274 12.0363 77.5069 11.7645 77.5859 11.514C77.665 11.2635 77.8375 11.0541 78.0667 10.9301C80.362 9.71374 82.9581 8.76517 85.484 9.35031C88.2656 9.99776 90.3097 12.4167 91.2647 15.0486C91.2869 15.1148 91.4506 15.897 91.4749 16.1503C91.5653 17.0764 91.6292 17.1726 91.5229 18.0965C91.5022 18.2705 91.3189 18.519 91.2671 18.3436C91.1949 18.0988 91.1332 17.4421 91.1089 17.376" fill="white"/>
<path id="Path 15395" d="M75.7318 36.9316C74.0821 36.8013 71.2739 37.4826 70.178 39.1702C69.4382 40.3111 69.1552 42.0833 70.0965 43.2495C70.2258 43.4097 70.6009 43.9078 71.2257 43.7115C71.5905 43.5946 71.2867 42.9502 71.2121 42.8057C70.0355 40.4717 72.3597 38.9027 74.059 38.167C74.7069 37.8859 75.3812 37.7305 76.0378 37.4764C76.0895 37.4601 76.1372 37.4326 76.1776 37.3961C76.1931 37.3745 76.2041 37.35 76.21 37.3241C76.2159 37.2982 76.2165 37.2713 76.2119 37.2451C76.2052 36.9911 75.8314 36.9388 75.7316 36.932" fill="white"/>
<g id="Clip path group_2">
<mask id="mask1_1074_20513" style="mask-type:luminance" maskUnits="userSpaceOnUse" x="23" y="83" width="47" height="10">
<g id="clip-path-2">
<path id="Path 15397" d="M23.4473 83.7803H69.4263V92.3503H23.4473V83.7803Z" fill="white"/>
</g>
</mask>
<g mask="url(#mask1_1074_20513)">
<g id="Group 36443">
<path id="Path 15396" d="M67.6163 92.3448C68.0595 92.3449 68.4847 92.1669 68.7982 91.85C69.1118 91.5331 69.2881 91.1032 69.2883 90.6549V89.2647C69.2883 86.6463 67.5097 84.4355 65.1147 83.7881C65.5059 84.2224 65.8029 84.7345 65.9869 85.2917C66.1709 85.8489 66.2377 86.4389 66.1831 87.0237C66.0204 88.7797 64.4747 90.0761 62.7296 90.0761H27.1412C26.3311 90.0742 25.5548 89.748 24.9818 89.1688C24.4088 88.5896 24.0858 87.8045 24.0834 86.9852V86.7542C23.6955 87.5329 23.4932 88.3927 23.4927 89.2648V90.6735C23.495 91.6058 24.2871 92.3449 25.2128 92.3449L67.6163 92.3448Z" fill="#B2C6FD"/>
</g>
</g>
</g>
<path id="Path 15398" d="M34.7948 82.2833H55.2864C55.6066 82.2818 55.9175 82.1746 56.172 81.9782C56.4265 81.7818 56.6108 81.5068 56.6968 81.1949C56.4075 79.9054 54.9925 79.4159 52.0681 76.5351C48.0033 72.5309 49.024 60.8127 49.4744 57.0533C49.5223 56.6762 49.5581 56.3813 49.5856 56.1803C49.6176 55.9811 49.6327 54.9795 49.6327 54.9795H41.6384C42.105 58.3158 43.6553 71.9227 38.6896 76.4272C35.503 79.3273 33.8532 79.9691 33.3774 81.1724C33.4602 81.4893 33.6439 81.7699 33.9 81.9706C34.1562 82.1714 34.4706 82.2813 34.7946 82.2833" fill="url(#paint2_linear_1074_20513)"/>
<path id="Path 15399" d="M35.899 82.2868H39.1083C38.7845 82.285 38.4704 82.1751 38.2147 81.9742C37.959 81.7734 37.776 81.4927 37.6942 81.1758C38.1692 79.9724 39.8168 79.3305 43.004 76.4306C47.8176 72.0655 46.5093 59.1468 46.0002 55.3193H42.7913C43.3005 59.1472 44.6088 72.0655 39.7943 76.4306C36.6077 79.3307 34.9601 79.9724 34.4854 81.1758C34.5671 81.4927 34.75 81.7734 35.0056 81.9743C35.2613 82.1752 35.5754 82.285 35.8991 82.2868" fill="white"/>
<path id="Path 15400" d="M54.0888 76.4195C49.3544 72.1168 50.5425 59.5293 51.0675 55.4914C51.1239 55.0842 51.1673 54.7682 51.1961 54.5539C51.2328 54.3391 51.2508 54.2266 51.2508 54.2266H41.521C41.521 54.2266 41.566 54.4946 41.6312 54.9717H49.6255C49.6255 54.9717 49.6103 55.9732 49.5784 56.1725C49.5509 56.3735 49.5151 56.6683 49.4672 57.0455C49.0167 60.8046 47.9961 72.5232 52.0609 76.5271C54.9857 79.4078 56.4003 79.8973 56.69 81.1868C56.6039 81.4988 56.4197 81.7738 56.1652 81.9702C55.9106 82.1666 55.5997 82.2737 55.2796 82.2753H34.7874C34.4634 82.2733 34.149 82.1634 33.8928 81.9626C33.6367 81.7618 33.453 81.4813 33.3702 81.1643C33.2484 81.4948 33.1991 81.8482 33.2258 82.1998C33.2327 82.3007 33.2374 82.4007 33.251 82.5154C33.299 82.8819 33.3676 83.2453 33.4565 83.6039H59.3171C60.161 80.0572 58.8125 80.7062 54.0886 76.419" fill="#B2C6FD"/>
<path id="Path 15401" d="M51.9056 49.3733H40.8697C40.5447 49.374 40.2212 49.4186 39.9078 49.5058H51.4801C52.1289 49.5067 52.751 49.7674 53.2103 50.2309C53.6696 50.6944 53.9289 51.323 53.9314 51.9794V52.8368C53.9291 53.4934 53.6699 54.1225 53.2106 54.5865C52.7514 55.0505 52.1292 55.3117 51.4801 55.3132H39.3668C38.9081 55.3111 38.4592 55.1788 38.0712 54.9313C37.6832 54.6839 37.3716 54.3313 37.1719 53.9136C37.3425 54.7794 37.8039 55.5588 38.4778 56.1198C39.1517 56.6807 39.9966 56.9887 40.8693 56.9914H51.9056C52.4001 56.9914 52.8898 56.8928 53.3466 56.7014C53.8035 56.51 54.2186 56.2294 54.5683 55.8757C54.918 55.522 55.1953 55.1021 55.3846 54.6399C55.5738 54.1778 55.6712 53.6824 55.6712 53.1822C55.6712 52.682 55.5738 52.1867 55.3846 51.7245C55.1953 51.2624 54.918 50.8424 54.5683 50.4887C54.2186 50.135 53.8035 49.8544 53.3466 49.663C52.8898 49.4716 52.4001 49.373 51.9056 49.373" fill="#B2C6FD"/>
<path id="Path 15402" d="M39.3655 55.3185H51.4788C52.1279 55.317 52.7501 55.0557 53.2094 54.5917C53.6687 54.1277 53.9278 53.4987 53.9301 52.8421V51.9843C53.9276 51.328 53.6684 50.6994 53.209 50.2359C52.7497 49.7724 52.1276 49.5117 51.4788 49.5107H39.9065C38.9794 49.7517 38.179 50.3432 37.6701 51.1632C37.1611 51.9833 36.9824 52.9695 37.1708 53.9188C37.3705 54.3365 37.6821 54.6892 38.0701 54.9366C38.4581 55.184 38.907 55.3163 39.3657 55.3185" fill="url(#paint3_linear_1074_20513)"/>
<path id="Path 15403" d="M41.4922 53.9188C41.3051 52.9695 41.4844 51.9839 41.9931 51.1641C42.5019 50.3444 43.3017 49.7528 44.2281 49.5107H41.019C40.0942 49.7556 39.2965 50.3478 38.7882 51.1667C38.2799 51.9857 38.0992 52.9698 38.283 53.9188C38.483 54.3363 38.7948 54.6888 39.1828 54.9362C39.5709 55.1836 40.0197 55.316 40.4784 55.3184H42.7912C42.7822 55.2498 42.773 55.1905 42.7663 55.1259C42.2107 54.8935 41.7577 54.4644 41.4921 53.9188" fill="white"/>
<path id="Path 15404" d="M25.6507 90.0714H63.1106C64.3512 90.0714 65.5147 89.3284 65.9334 88.1507C66.5284 86.484 66.0963 84.8812 65.1182 83.7834C64.6489 83.6552 64.1652 83.5892 63.6791 83.5869H29.109C28.0641 83.5902 27.0408 83.8878 26.1538 84.4464C25.2667 85.005 24.551 85.8025 24.0869 86.7494V88.4893C24.0879 88.9085 24.253 89.3103 24.5461 89.6068C24.8391 89.9033 25.2363 90.0703 25.6507 90.0714Z" fill="url(#paint4_linear_1074_20513)"/>
<path id="Path 15405" d="M30.1437 86.9805V86.7494C30.9908 84.3095 32.9731 83.5869 35.1688 83.5869H31.9595C29.7641 83.5869 27.7 84.1429 26.9343 86.7494L26.917 87.6341C26.917 89.3354 27.1521 90.0714 28.8362 90.0714H33.2038C32.3937 90.069 31.6174 89.7427 31.0442 89.1637C30.471 88.5847 30.1473 87.7999 30.1437 86.9805Z" fill="white"/>
<path id="Path 15406" d="M74.9426 0.650391H17.8327C16.0473 0.650391 14.5869 2.00848 14.5869 3.66593V4.33347C14.5885 4.5898 14.6252 4.84468 14.6958 5.09086C15.058 6.38743 16.3275 7.35192 17.8327 7.35192H74.9427C76.7265 7.35192 78.1861 5.99384 78.1861 4.33347V3.66593C78.1861 2.00848 76.7265 0.650391 74.9426 0.650391Z" fill="url(#paint5_linear_1074_20513)"/>
<path id="Path 15407" d="M75.6234 10.9238C75.6234 34.5809 63.159 52.5691 46.3859 52.5691C41.4946 52.5691 36.9703 51.0208 33.0115 48.2657C35.9498 49.4958 39.3448 50.1678 43.2558 50.1678C58.3449 50.1678 69.562 33.9812 69.562 12.6983C69.5593 11.8053 69.2076 10.9498 68.5835 10.3183C67.9593 9.68686 67.1136 9.33085 66.2309 9.32799L28.5465 9.23873L21.8289 9.22097L17.1714 9.20936C17.1931 8.48886 17.223 7.76441 17.2641 7.05078L21.7086 7.0624L28.51 7.07379L75.5126 7.18556C75.587 8.41335 75.624 9.6594 75.6237 10.9237" fill="#B2C6FD"/>
<path id="Path 15408" d="M69.5616 12.7066C69.558 11.8142 69.2063 10.9593 68.583 10.3277C67.9596 9.6961 67.115 9.33893 66.2328 9.33382L17.1731 9.22461C17.1594 9.79119 17.1479 10.3608 17.1479 10.9321C17.1479 27.6859 23.4038 41.5855 33.011 48.2785C35.9517 49.5063 39.3468 50.1761 43.2533 50.1761C58.3445 50.1761 69.5615 33.9895 69.5615 12.7066" fill="url(#paint6_linear_1074_20513)"/>
<path id="Path 15409" d="M28.8264 0.650391C28.6248 3.07385 28.5137 4.38876 28.5137 6.93166V7.08266L21.7123 7.07119C21.6605 5.77702 21.6309 4.46678 21.6309 3.14259C21.6309 1.90803 21.6605 1.86238 21.7053 0.650537H28.8264" fill="white"/>
<path id="Path 15410" d="M42.1249 48.123C31.659 46.641 23.2055 30.2326 21.8203 9.22461L28.5379 9.24236C28.9771 26.8285 34.4634 41.714 42.1249 48.123Z" fill="white"/>
</g>
<path id="Polygon 234" d="M52.1793 27.4541L52.8717 30.4403L55.8239 31.1408L52.8717 31.8413L52.1793 34.8276L51.4868 31.8413L48.5347 31.1408L51.4868 30.4403L52.1793 27.4541Z" fill="white"/>
<path id="Polygon 238" d="M55.8272 13.6279L56.9237 18.3561L61.5978 19.4652L56.9237 20.5743L55.8272 25.3025L54.7308 20.5743L50.0566 19.4652L54.7308 18.3561L55.8272 13.6279Z" fill="white"/>
</g>
</g>
<defs>
<linearGradient id="paint0_linear_1074_20513" x1="6.15399" y1="21.9217" x2="25.0347" y2="22.1541" gradientUnits="userSpaceOnUse">
<stop stop-color="#DBFFFF"/>
<stop offset="1" stop-color="#BBDFFF"/>
</linearGradient>
<linearGradient id="paint1_linear_1074_20513" x1="71.4722" y1="21.9217" x2="90.3523" y2="22.1541" gradientUnits="userSpaceOnUse">
<stop stop-color="#DBFFFF"/>
<stop offset="1" stop-color="#BBDFFF"/>
</linearGradient>
<linearGradient id="paint2_linear_1074_20513" x1="38.2745" y1="64.6177" x2="55.1359" y2="64.8767" gradientUnits="userSpaceOnUse">
<stop stop-color="#DBFFFF"/>
<stop offset="1" stop-color="#BBDFFF"/>
</linearGradient>
<linearGradient id="paint3_linear_1074_20513" x1="40.6325" y1="51.5609" x2="52.7733" y2="52.1936" gradientUnits="userSpaceOnUse">
<stop stop-color="#DBFFFF"/>
<stop offset="1" stop-color="#BBDFFF"/>
</linearGradient>
<linearGradient id="paint4_linear_1074_20513" x1="32.9317" y1="85.8759" x2="62.983" y2="89.3856" gradientUnits="userSpaceOnUse">
<stop stop-color="#DBFFFF"/>
<stop offset="1" stop-color="#BBDFFF"/>
</linearGradient>
<linearGradient id="paint5_linear_1074_20513" x1="27.9428" y1="3.01603" x2="72.6384" y2="10.6429" gradientUnits="userSpaceOnUse">
<stop stop-color="#DBFFFF"/>
<stop offset="1" stop-color="#BBDFFF"/>
</linearGradient>
<linearGradient id="paint6_linear_1074_20513" x1="28.1548" y1="23.6805" x2="66.0421" y2="24.5524" gradientUnits="userSpaceOnUse">
<stop stop-color="#DBFFFF"/>
<stop offset="1" stop-color="#BBDFFF"/>
</linearGradient>
</defs>
</svg>
