<svg width="44" height="44" viewBox="0 0 44 44" fill="none" xmlns="http://www.w3.org/2000/svg">
<g id="stopwatch2">
<path id="Vector" d="M21.9968 3.58008C20.6383 3.58008 19.2596 3.78907 17.8717 4.15207C16.8924 4.41057 16.3545 5.40792 16.6113 6.38692C16.8682 7.36592 17.8662 7.96174 18.8452 7.70508C19.9416 7.41724 20.9683 7.24674 21.9968 7.24674C23.0564 7.24674 24.1124 7.41724 25.2051 7.70508C26.1841 7.96174 27.1814 7.36592 27.4399 6.38692C27.6966 5.40792 27.1008 4.41057 26.1218 4.15207C24.7358 3.78907 23.3828 3.58008 21.9968 3.58008ZM21.9968 9.08008C13.8965 9.08008 7.33008 15.6471 7.33008 23.7467C7.33008 31.8464 13.8965 38.4134 21.9968 38.4134C30.0964 38.4134 36.6634 31.8464 36.6634 23.7467C36.6634 15.6471 30.0964 9.08008 21.9968 9.08008ZM34.8301 9.08008C33.8181 9.08008 32.9968 9.90141 32.9968 10.9134C32.9968 11.9254 33.8181 12.7467 34.8301 12.7467C35.8421 12.7467 36.6634 11.9254 36.6634 10.9134C36.6634 9.90141 35.8421 9.08008 34.8301 9.08008ZM21.9968 12.7467C28.0724 12.7467 32.9968 17.6711 32.9968 23.7467C32.9968 29.8224 28.0724 34.7467 21.9968 34.7467C15.9216 34.7467 10.9967 29.8224 10.9967 23.7467C10.9967 17.6711 15.9216 12.7467 21.9968 12.7467ZM21.9968 16.4134C20.9848 16.4134 20.1634 17.2347 20.1634 18.2467V23.7467C20.1634 24.2326 20.3357 24.7202 20.6786 25.0649L24.3452 28.7316C25.0621 29.4466 26.2648 29.4466 26.9816 28.7316C27.6966 28.0147 27.6966 26.8121 26.9816 26.0953L23.8301 22.9437V18.2467C23.8301 17.2347 23.0088 16.4134 21.9968 16.4134Z" fill="url(#paint0_linear_1074_23689)"/>
</g>
<defs>
<linearGradient id="paint0_linear_1074_23689" x1="7.75153" y1="31.985" x2="36.6634" y2="31.985" gradientUnits="userSpaceOnUse">
<stop stop-color="#7C4ACF"/>
<stop offset="1" stop-color="#69B7FA"/>
</linearGradient>
</defs>
</svg>
