<svg width="87" height="88" viewBox="0 0 87 88" fill="none" xmlns="http://www.w3.org/2000/svg">
<g id="Group 1000004081">
<path id="Vector" d="M0.771484 43.8961C0.771484 12.5342 12.4824 0.773438 43.7113 0.773438C74.9403 0.773438 86.6512 12.5342 86.6512 43.8961C86.6512 75.258 74.9403 87.0188 43.7113 87.0188C12.4824 87.0188 0.771484 75.258 0.771484 43.8961Z" fill="#00ABE8"/>
<path id="Vector_2" fill-rule="evenodd" clip-rule="evenodd" d="M63.2293 24.2986L21.2654 42.0965C20.961 42.2187 20.7002 42.4297 20.5164 42.7022C20.3326 42.9747 20.2344 43.2963 20.2344 43.6254C20.2344 43.9546 20.3326 44.2762 20.5164 44.5487C20.7002 44.8212 20.961 45.0322 21.2654 45.1543L29.0726 47.6241C30.3079 48.0072 31.6137 48.1039 32.8916 47.907C34.1696 47.7101 35.3864 47.2246 36.4505 46.4872L54.1339 34.2169C54.2602 34.1514 54.405 34.1311 54.5443 34.1595C54.6836 34.1878 54.8092 34.263 54.9002 34.3727C54.9912 34.4823 55.0422 34.6199 55.0448 34.7626C55.0475 34.9054 55.0015 35.0447 54.9146 35.1577L41.369 48.1729C41.0245 48.5125 40.7588 48.9244 40.5911 49.379C40.4233 49.8336 40.3576 50.3199 40.3986 50.803C40.4396 51.2861 40.5864 51.7541 40.8284 52.1736C41.0703 52.5932 41.4016 52.9539 41.7984 53.23L56.359 63.109C56.814 63.41 57.3366 63.5924 57.8795 63.6396C58.4223 63.6868 58.9684 63.5974 59.4682 63.3795C59.968 63.1616 60.4059 62.8221 60.7423 62.3915C61.0786 61.961 61.3028 61.4531 61.3946 60.9137L67.133 27.4348C67.2214 26.9292 67.1727 26.409 66.9921 25.9288C66.8115 25.4485 66.5056 25.0259 66.1064 24.7052C65.7072 24.3845 65.2295 24.1776 64.7233 24.106C64.2172 24.0345 63.7011 24.101 63.2293 24.2986Z" fill="white"/>
</g>
</svg>
