<svg width="36" height="44" viewBox="0 0 36 44" fill="none" xmlns="http://www.w3.org/2000/svg">
<path id="Vector" d="M1.97988 9.73404L1.97995 9.734L17.2801 0.940234C17.2802 0.940188 17.2803 0.940143 17.2804 0.940098C17.7228 0.686373 18.2795 0.687025 18.7185 0.939709L18.7189 0.939959L34.0196 9.734L34.0197 9.73404C34.9867 10.2897 34.9867 11.7252 34.0197 12.2809L34.0196 12.2809L18.7194 21.0747C18.7193 21.0747 18.7191 21.0748 18.719 21.0749C18.2766 21.3285 17.7199 21.3278 17.281 21.0752L17.2806 21.0749L1.97995 12.2809L1.97988 12.2809C1.0128 11.7252 1.0128 10.2897 1.97988 9.73404ZM18.3739 4.10532L17.9998 3.88994L17.6256 4.10532L6.76434 10.3574L5.63434 11.0079L6.76475 11.6577C8.85233 12.8576 11.3123 14.2745 13.4703 15.5174C15.1407 16.4795 16.6303 17.3374 17.626 17.9098L18 18.1248L18.3739 17.9096L29.2352 11.6574L30.3644 11.0074L29.2352 10.3574L18.3739 4.10532ZM1.43865 21.2712L1.43868 21.2712C1.62474 20.9436 1.97178 20.6975 2.3509 20.5934C2.70905 20.4953 3.07681 20.5305 3.41859 20.7267L17.6257 28.9022L17.9998 29.1174L18.3738 28.9022L32.5809 20.7267C32.581 20.7267 32.581 20.7267 32.581 20.7267C33.2682 20.3322 34.1663 20.5767 34.5609 21.2712C34.9572 21.9688 34.7087 22.8778 34.0199 23.2733L34.0196 23.2734L18.7194 32.0672C18.7193 32.0673 18.7191 32.0674 18.719 32.0675C18.2766 32.3211 17.7199 32.3204 17.281 32.0677L17.2806 32.0675L1.98024 23.2736C1.29212 22.8777 1.04286 21.9679 1.43865 21.2712ZM1.43865 32.2638L1.43868 32.2637C1.62474 31.9362 1.97179 31.6901 2.3509 31.586C2.70904 31.4878 3.0768 31.523 3.41859 31.7193L17.6257 39.8947L17.9998 40.11L18.3738 39.8947L32.5809 31.7193C32.581 31.7193 32.581 31.7192 32.581 31.7192C33.2682 31.3247 34.1663 31.5693 34.5609 32.2638C34.9572 32.9613 34.7087 33.8704 34.0199 34.2658L34.0196 34.266L18.7194 43.0598C18.7193 43.0598 18.7191 43.0599 18.719 43.06C18.2766 43.3136 17.7199 43.3129 17.281 43.0603L17.2806 43.06L1.98024 34.2662C1.29212 33.8703 1.04286 32.9604 1.43865 32.2638Z" stroke="url(#paint0_linear_2254_17166)" stroke-width="1.5"/>
<defs>
<linearGradient id="paint0_linear_2254_17166" x1="4.21033" y1="7.02159" x2="4.21033" y2="35.8799" gradientUnits="userSpaceOnUse">
<stop stop-color="#7C4ACF"/>
<stop offset="0.375" stop-color="#69B7FA"/>
<stop offset="0.765" stop-color="#FFA96E"/>
<stop offset="1" stop-color="#FE506F"/>
</linearGradient>
</defs>
</svg>
