<svg width="40" height="36" viewBox="0 0 40 36" fill="none" xmlns="http://www.w3.org/2000/svg">
<path id="Vector" d="M3.23192 14.592L3.89061 14.024L3.23192 13.456C1.69358 12.1295 0.75 10.1932 0.75 7.99594C0.75 3.99458 3.99599 0.75 8.0004 0.75C10.1797 0.75 12.092 1.74915 13.4334 3.30057L14.0011 3.95722L14.5684 3.30019C15.9075 1.74928 17.8195 0.75 20.001 0.75C24.0052 0.75 27.2494 3.99433 27.2494 7.99594C27.2494 9.8184 26.6587 11.4001 25.5719 12.6575L24.9838 13.3379L25.7588 13.7942C27.6994 14.9369 29.008 16.9561 29.2391 19.3286L29.3929 20.9083L30.5156 19.7865C31.8634 18.4398 33.3013 16.9703 34.5054 15.7346C34.8577 15.373 35.1893 15.0321 35.4926 14.7204C36.2291 13.9633 36.7985 13.3779 37.0916 13.0848C37.4878 12.6901 38.0209 12.628 38.4632 12.811C38.9047 12.9937 39.25 13.4324 39.25 13.9919V33.9799C39.25 35.1015 37.8735 35.6655 37.0929 34.8863C37.0927 34.8861 37.0924 34.8858 37.0922 34.8855L30.5343 28.266L29.409 27.1301L29.255 28.7216C28.9004 32.3846 25.7716 35.2499 21.9991 35.2499H8.0004C3.99855 35.2499 0.75 31.9858 0.75 27.9839V19.988C0.75 17.7973 1.68845 15.9229 3.23192 14.592ZM36.7498 18.8639V17.0546L35.4697 18.3333C33.3835 20.4175 31.7733 22.0275 30.3452 23.4555L29.8148 23.986L30.3453 24.5163L35.4696 29.6384L36.7498 30.918V29.1079V18.8639ZM12.7506 7.99594C12.7506 5.37319 10.6222 3.24803 8.0004 3.24803C5.37638 3.24803 3.2502 5.37344 3.2502 7.99594C3.2502 10.6189 5.37686 12.7419 8.0004 12.7419C10.6219 12.7419 12.7506 10.6169 12.7506 7.99594ZM24.7492 7.99594C24.7492 5.37368 22.6233 3.24803 20.001 3.24803C17.377 3.24803 15.2508 5.37344 15.2508 7.99594C15.2508 10.6189 17.3775 12.7419 20.001 12.7419C22.623 12.7419 24.7492 10.6164 24.7492 7.99594ZM21.9991 15.2619H8.0004C5.37635 15.2619 3.2502 17.3875 3.2502 20.0099V28.0039C3.2502 30.6264 5.37638 32.7518 8.0004 32.7518H21.9991C24.6231 32.7518 26.7493 30.6264 26.7493 28.0039V20.0099C26.7493 17.3875 24.6231 15.2619 21.9991 15.2619Z" stroke="url(#paint0_linear_2254_17140)" stroke-width="1.5"/>
<defs>
<linearGradient id="paint0_linear_2254_17140" x1="4.24038" y1="5.74494" x2="4.24038" y2="29.3563" gradientUnits="userSpaceOnUse">
<stop stop-color="#7C4ACF"/>
<stop offset="0.375" stop-color="#69B7FA"/>
<stop offset="0.765" stop-color="#FFA96E"/>
<stop offset="1" stop-color="#FE506F"/>
</linearGradient>
</defs>
</svg>
