<svg width="42" height="42" viewBox="0 0 42 42" fill="none" xmlns="http://www.w3.org/2000/svg">
<path id="Vector" d="M3.91667 13.0919L5.00113 13.6322C6.07243 14.166 7.05634 14.6423 8.06557 15.1309L8.08479 15.1402C9.08728 15.6254 10.115 16.1229 11.2724 16.698L3.91667 13.0919ZM3.91667 13.0919V14.3035M3.91667 13.0919V14.3035M3.91667 14.3035V27.8784C3.91667 28.5809 4.21102 29.3336 4.59339 29.9461C4.97628 30.5594 5.52392 31.1547 6.15473 31.4688L6.15508 31.469L18.3327 37.5244L19.4167 38.0634V36.8528V20.7979V20.1805L18.8108 20.0619C18.0164 19.9063 17.4056 19.6942 16.4294 19.2417L16.4293 19.2416M3.91667 14.3035L16.4293 19.2416M16.4293 19.2416C15.8987 18.9958 14.0813 18.093 12.3752 17.2456M16.4293 19.2416L12.3752 17.2456M12.3752 17.2456C11.9971 17.0578 11.6244 16.8727 11.2724 16.698L12.3752 17.2456ZM16.4483 1.6942L16.4487 1.69398C17.7001 1.06988 19.3472 0.75 21 0.75C22.6528 0.75 24.2999 1.06988 25.5513 1.69398L25.5517 1.6942L40.3544 9.06431L40.362 9.06808L40.3696 9.07168C40.9532 9.34599 41.25 9.90983 41.25 10.5087V27.8784C41.25 30.4191 39.5025 33.2219 37.2188 34.3574L24.9702 40.4143L24.9686 40.4151C23.8694 40.962 22.4503 41.2503 21.0001 41.25C19.55 41.2497 18.1306 40.961 17.0309 40.4149L17.0298 40.4143L4.78148 34.3575C4.78126 34.3574 4.78104 34.3573 4.78082 34.3572C2.51805 33.2308 0.75 30.3953 0.75 27.8784V10.5087C0.75 9.9449 1.01595 9.41362 1.65925 9.05751L16.4483 1.6942ZM17.8941 4.51037L17.8924 4.51123L7.2477 9.83798L5.90334 10.5107L7.24932 11.1802C8.34309 11.7242 13.0507 14.0457 15.826 15.4144C17.0102 15.9983 17.8426 16.4088 17.8924 16.4337L17.8941 16.4346C18.7611 16.8657 19.9093 17.056 21 17.056C22.0901 17.056 23.2376 16.8659 24.1045 16.4353C24.105 16.4351 24.1054 16.4348 24.1059 16.4346L34.7486 11.1812L36.1018 10.5133L34.7523 9.83798L24.1076 4.51123L24.1059 4.51037C23.2389 4.07927 22.0907 3.88899 21 3.88899C19.9093 3.88899 18.7611 4.07927 17.8941 4.51037ZM38.0833 14.3035V13.0965L37.0012 13.631L25.4792 19.3221L25.4757 19.3238C24.8337 19.6451 24.0134 19.9004 23.1892 20.0619L22.5833 20.1805V20.7979V36.8528V38.0601L23.6656 37.5252L35.771 31.5422L35.7736 31.5409C36.4115 31.2225 36.9764 30.6181 37.3748 29.9923C37.7718 29.3687 38.0833 28.5983 38.0833 27.8784V14.3035Z" stroke="url(#paint0_linear_2254_17127)" stroke-width="1.5"/>
<defs>
<linearGradient id="paint0_linear_2254_17127" x1="4.4524" y1="6.70243" x2="4.4524" y2="34.249" gradientUnits="userSpaceOnUse">
<stop stop-color="#7C4ACF"/>
<stop offset="0.375" stop-color="#69B7FA"/>
<stop offset="0.765" stop-color="#FFA96E"/>
<stop offset="1" stop-color="#FE506F"/>
</linearGradient>
</defs>
</svg>
