<svg width="86" height="88" viewBox="0 0 86 88" fill="none" xmlns="http://www.w3.org/2000/svg">
<g id="Group 1000004083">
<g id="Layer 2">
<g id="Layer 1">
<path id="Vector" d="M66.6036 0.773438H19.2761C8.6302 0.773438 0 9.44038 0 20.1316V67.6606C0 78.3518 8.6302 87.0188 19.2761 87.0188H66.6036C77.2495 87.0188 85.8797 78.3518 85.8797 67.6606V20.1316C85.8797 9.44038 77.2495 0.773438 66.6036 0.773438Z" fill="#7D3DAF"/>
<path id="Vector_2" d="M64.9403 31.4841C64.1332 29.0098 62.7353 26.7715 60.8686 24.9645C59.0019 23.1576 56.7232 21.837 54.2314 21.118C46.8226 19.6898 39.2109 19.6898 31.8021 21.118C29.2676 21.7926 26.9388 23.0869 25.0235 24.8852C23.1082 26.6836 21.6659 28.9301 20.8254 31.4244C19.454 37.6726 19.454 44.1459 20.8254 50.3942C21.6035 52.77 22.9229 54.9307 24.6787 56.7044C26.4345 58.478 28.5783 59.8157 30.9394 60.611V65.6596C30.9403 66.0643 31.0616 66.4596 31.2876 66.7947C31.5137 67.1297 31.8342 67.3893 32.2082 67.5402C32.5822 67.6911 32.9925 67.7263 33.3865 67.6414C33.7806 67.5565 34.1404 67.3553 34.4198 67.0637L39.5066 61.776H42.8085C46.5721 61.773 50.327 61.4129 54.0231 60.7006C56.515 59.9816 58.7937 58.6609 60.6604 56.854C62.5271 55.0471 63.925 52.8087 64.7321 50.3344C66.1547 44.1396 66.2258 37.7091 64.9403 31.4841ZM60.9244 49.4083C60.3024 51.1218 59.2981 52.6696 57.9884 53.933C56.6788 55.1965 55.0985 56.1421 53.3687 56.6975C49.4482 57.4448 45.4588 57.7653 41.4699 57.6535C41.4369 57.6395 41.4015 57.6323 41.3658 57.6323C41.33 57.6323 41.2946 57.6395 41.2617 57.6535L37.5135 61.7163L33.5572 65.7791C33.4908 65.8424 33.4076 65.8851 33.3177 65.9021C33.2277 65.9191 33.1348 65.9097 33.05 65.875C32.9653 65.8403 32.8923 65.7818 32.8398 65.7065C32.7873 65.6312 32.7575 65.5424 32.754 65.4505V57.1157C32.7488 57.0511 32.7228 56.9898 32.6798 56.9413C32.6369 56.8928 32.5794 56.8597 32.516 56.8469C30.7862 56.2915 29.2059 55.3459 27.8963 54.0824C26.5866 52.8189 25.5823 51.2712 24.9603 49.5577C23.7251 43.9092 23.7251 38.0587 24.9603 32.4102C25.5823 30.6967 26.5866 29.149 27.8963 27.8855C29.2059 26.622 30.7862 25.6764 32.516 25.121C39.3947 23.8004 46.4603 23.8004 53.339 25.121C55.0688 25.6764 56.649 26.622 57.9587 27.8855C59.2684 29.149 60.2727 30.6967 60.8947 32.4102C62.1407 38.0565 62.1508 43.9071 60.9244 49.5577V49.4083Z" fill="white"/>
<path id="Vector_3" d="M53.0071 48.094C52.3883 47.5727 51.7429 47.0842 51.0736 46.6302C50.3894 46.1522 49.7349 45.6742 49.021 45.2261C48.7075 44.9909 48.3266 44.8639 47.9352 44.8639C47.5439 44.8639 47.163 44.9909 46.8495 45.2261C46.195 45.7638 45.8678 46.8094 44.9457 46.9289C44.4045 46.9432 43.8696 46.8089 43.3988 46.5405C41.985 45.9144 40.7219 44.9901 39.6954 43.8303C38.6688 42.6705 37.9028 41.3024 37.4494 39.819C37.3577 39.6333 37.3099 39.4288 37.3099 39.2215C37.3099 39.0142 37.3577 38.8097 37.4494 38.624C37.5782 38.4288 37.7391 38.2571 37.9254 38.1162L38.5501 37.6382C38.959 37.3534 39.2429 36.9212 39.3427 36.4316C39.4424 35.9419 39.3503 35.4325 39.0855 35.0093C38.2379 33.5544 37.2409 32.1927 36.1108 30.9465C35.9021 30.6607 35.5991 30.4586 35.2558 30.3766C34.9125 30.2945 34.5513 30.3376 34.2367 30.4984C33.3483 30.9152 32.5576 31.5158 31.9165 32.2609C31.5081 32.628 31.2087 33.1012 31.0512 33.6284C30.8938 34.1555 30.8844 34.7161 31.0241 35.2483C31.5 36.4134 31.976 37.5784 32.5114 38.7136C33.645 41.1094 35.0959 43.3403 36.8247 45.3456C39.9545 48.7086 43.8118 51.3047 48.0989 52.9335C48.5153 53.1128 48.9615 53.2024 49.4077 53.3517C49.8156 53.2602 50.214 53.1302 50.5976 52.9634C51.8185 52.296 52.7897 51.2473 53.3641 49.976C53.528 49.6687 53.582 49.3141 53.517 48.9716C53.4521 48.6291 53.2721 48.3193 53.0071 48.094Z" fill="white"/>
<path id="Vector_4" d="M42.9528 29.125H42.6256C42.5277 29.1242 42.4308 29.1444 42.3414 29.1844C42.252 29.2244 42.1721 29.2832 42.1073 29.3568C42.0424 29.4305 41.9941 29.5172 41.9654 29.6112C41.9368 29.7052 41.9286 29.8043 41.9414 29.9017C41.9414 30.4096 42.5363 30.4096 42.9528 30.4693C43.3693 30.5291 44.2319 30.4693 44.8269 30.6785C46.8659 31.0599 48.7357 32.0708 50.1754 33.5702C51.6151 35.0696 52.5531 36.9828 52.8586 39.0431C52.8586 39.8198 53.0073 40.6264 53.0668 41.433C53.1263 42.2396 53.3048 42.2097 53.751 42.2097C53.8454 42.207 53.9381 42.1838 54.0227 42.1416C54.1074 42.0995 54.1819 42.0395 54.2413 41.9657C54.3006 41.8919 54.3434 41.8061 54.3666 41.7141C54.3898 41.6222 54.3929 41.5263 54.3757 41.433C54.3757 40.477 54.3757 39.5211 54.0782 38.4456C53.599 35.8321 52.2242 33.4693 50.1922 31.7669C48.1602 30.0645 45.599 29.1299 42.9528 29.125Z" fill="white"/>
<path id="Vector_5" d="M50.1207 40.0537C50.0923 40.2318 50.0923 40.4133 50.1207 40.5914C50.1611 40.7181 50.2404 40.8285 50.3474 40.9069C50.4543 40.9853 50.5833 41.0275 50.7156 41.0275C50.848 41.0275 50.977 40.9853 51.0839 40.9069C51.1908 40.8285 51.2702 40.7181 51.3106 40.5914C51.3202 40.4622 51.3202 40.3323 51.3106 40.2031V39.2471V38.8886C51.1695 37.6686 50.7287 36.503 50.0277 35.4965C49.3267 34.4901 48.3875 33.6745 47.2947 33.123C46.1591 32.5403 44.9103 32.214 43.6358 32.1671C43.5529 32.1587 43.4691 32.1679 43.3899 32.1942C43.3107 32.2204 43.2379 32.2631 43.1761 32.3194C43.1144 32.3758 43.0652 32.4445 43.0317 32.5212C42.9981 32.5979 42.981 32.6808 42.9814 32.7645C42.9688 32.8477 42.9738 32.9326 42.9961 33.0137C43.0184 33.0948 43.0575 33.1703 43.1109 33.2351C43.1642 33.3 43.2306 33.3528 43.3057 33.3901C43.3808 33.4274 43.4629 33.4484 43.5466 33.4516L44.6175 33.6309C45.3496 33.7456 46.0611 33.967 46.7295 34.2881C47.8344 34.837 48.7548 35.699 49.377 36.7676C49.8963 37.7827 50.1521 38.9129 50.1207 40.0537Z" fill="white"/>
<path id="Vector_6" d="M48.4591 39.6103C48.4865 39.4322 48.4865 39.2508 48.4591 39.0726C48.463 38.564 48.3666 38.0597 48.1756 37.5887C47.9845 37.1177 47.7024 36.6893 47.3457 36.3283C46.989 35.9673 46.5646 35.6807 46.0971 35.4852C45.6296 35.2897 45.1282 35.189 44.6217 35.189C44.4583 35.178 44.2964 35.2263 44.1654 35.3249C44.0344 35.4236 43.943 35.5662 43.9078 35.7268C43.8906 35.8093 43.8901 35.8944 43.9064 35.9771C43.9227 36.0598 43.9554 36.1384 44.0026 36.2081C44.0498 36.2778 44.1106 36.3372 44.1811 36.3828C44.2517 36.4285 44.3308 36.4593 44.4135 36.4736C44.7407 36.4736 45.0977 36.4736 45.4546 36.623C45.7212 36.6987 45.9728 36.8199 46.1983 36.9815C46.669 37.344 46.9958 37.8629 47.1205 38.4453C47.1396 38.7437 47.1396 39.0431 47.1205 39.3415C47.1204 39.4343 47.139 39.5261 47.1752 39.6115C47.2115 39.6969 47.2645 39.774 47.3313 39.8382C47.398 39.9024 47.477 39.9524 47.5634 39.9851C47.6499 40.0178 47.7421 40.0326 47.8344 40.0286C47.9714 40.0477 48.1107 40.0158 48.2259 39.9387C48.341 39.8616 48.424 39.7448 48.4591 39.6103Z" fill="white"/>
</g>
</g>
</g>
</svg>
