<svg width="86" height="88" viewBox="0 0 86 88" fill="none" xmlns="http://www.w3.org/2000/svg">
<g id="Group 1000004086">
<g id="Group 1000004085">
<path id="Path 16" d="M21.8981 86.9236C18.5764 86.8864 15.2859 86.2746 12.1711 85.115C9.89651 84.2707 7.83858 82.9265 6.14777 81.1808C4.40474 79.4861 3.06428 77.4189 2.22597 75.1327C1.07229 72.0047 0.463921 68.7005 0.427563 65.365C0.172453 59.82 0.121094 58.1569 0.121094 44.1066C0.121094 30.0564 0.177504 28.3991 0.425038 22.8499C0.465807 19.5158 1.07492 16.2133 2.22597 13.0857C3.06836 10.801 4.40692 8.73352 6.1444 7.03333C7.83312 5.28445 9.89201 3.93954 12.1686 3.09821C15.2834 1.93866 18.5739 1.32684 21.8956 1.28961C27.4188 1.03595 29.0774 0.984375 43.0605 0.984375C57.0436 0.984375 58.7014 1.04103 64.2271 1.28961C67.548 1.33027 70.8374 1.94198 73.9525 3.09821C76.2281 3.94065 78.2864 5.28509 79.9758 7.03248C81.7163 8.72967 83.0556 10.7973 83.8951 13.0831C85.05 16.2112 85.6595 19.5157 85.6969 22.8516C85.9495 28.4008 86.0008 30.0623 86.0008 44.1083C86.0008 58.1543 85.9495 59.8158 85.6969 65.365C85.6568 68.7004 85.0473 72.0042 83.8951 75.1327C83.0235 77.4014 81.6885 79.4617 79.9761 81.1809C78.2637 82.9002 76.2118 84.2403 73.9525 85.115C70.8377 86.2749 67.5472 86.887 64.2255 86.9245C58.7048 87.1781 57.0453 87.2297 43.0588 87.2297C29.0724 87.2297 27.4179 87.1807 21.8973 86.9245" fill="url(#paint0_radial_2287_26934)"/>
<path id="Path 17" d="M21.8981 86.9236C18.5764 86.8864 15.2859 86.2746 12.1711 85.115C9.89651 84.2707 7.83858 82.9265 6.14777 81.1808C4.40474 79.4861 3.06428 77.4189 2.22597 75.1327C1.07229 72.0047 0.463921 68.7005 0.427563 65.365C0.172453 59.82 0.121094 58.1569 0.121094 44.1066C0.121094 30.0564 0.177504 28.3991 0.425038 22.8499C0.465807 19.5158 1.07492 16.2133 2.22597 13.0857C3.06836 10.801 4.40692 8.73352 6.1444 7.03333C7.83312 5.28445 9.89201 3.93954 12.1686 3.09821C15.2834 1.93866 18.5739 1.32684 21.8956 1.28961C27.4188 1.03595 29.0774 0.984375 43.0605 0.984375C57.0436 0.984375 58.7014 1.04103 64.2271 1.28961C67.548 1.33027 70.8374 1.94198 73.9525 3.09821C76.2281 3.94065 78.2864 5.28509 79.9758 7.03248C81.7163 8.72967 83.0556 10.7973 83.8951 13.0831C85.05 16.2112 85.6595 19.5157 85.6969 22.8516C85.9495 28.4008 86.0008 30.0623 86.0008 44.1083C86.0008 58.1543 85.9495 59.8158 85.6969 65.365C85.6568 68.7004 85.0473 72.0042 83.8951 75.1327C83.0235 77.4014 81.6885 79.4617 79.9761 81.1809C78.2637 82.9002 76.2118 84.2403 73.9525 85.115C70.8377 86.2749 67.5472 86.887 64.2255 86.9245C58.7048 87.1781 57.0453 87.2297 43.0588 87.2297C29.0724 87.2297 27.4179 87.1807 21.8973 86.9245" fill="#32D25F"/>
<path id="Vector (Stroke)" fill-rule="evenodd" clip-rule="evenodd" d="M23.053 59.7355L17.2391 72.5352L30.4974 66.3056L31.2961 66.7503C35.1664 68.9056 39.6069 70.1317 44.3313 70.1317C59.353 70.1317 71.5811 57.7336 71.5811 42.3744C71.5933 27.0166 59.3663 14.6171 44.3443 14.6171C29.31 14.6171 17.0945 27.0147 17.0945 42.3744C17.0945 48.561 19.0829 54.2697 22.4365 58.8868L23.053 59.7355ZM15.526 75.3238L13.5918 76.2354L20.9911 59.9456C17.4213 55.031 15.3053 48.9537 15.3053 42.3744C15.3053 26.045 28.2995 12.8203 44.3443 12.8203C60.376 12.8203 73.3832 26.045 73.3702 42.3744C73.3702 58.7038 60.3631 71.9284 44.3313 71.9284C39.2946 71.9284 34.5564 70.6205 30.4284 68.3217L15.526 75.3238ZM29.4704 39.0171C28.5215 36.1487 28.1836 33.1001 28.4517 30.0989C28.5709 28.7376 29.0453 27.4655 29.786 26.3862C30.5371 25.2916 31.574 24.4098 32.7923 23.8392C33.8157 23.3471 34.9104 23.1252 35.9714 23.1252C36.001 23.1252 36.0312 23.1252 36.062 23.1252C36.609 23.1249 37.3443 23.1244 38.073 23.2243C38.846 23.3303 39.7721 23.5669 40.5962 24.1616C42.8036 25.7443 43.5242 28.6202 43.5242 30.7879C43.5242 31.0365 43.5058 31.2847 43.4931 31.4524L43.4916 31.4729C43.4893 31.4987 43.4869 31.5248 43.4847 31.5511C43.3996 32.534 43.2828 33.8844 42.4109 35.1315C41.8866 35.8926 41.1436 36.5312 40.3982 37.0269C41.0938 40.0987 42.1297 42.2422 43.3567 43.5958L43.4303 43.677L43.4935 43.7666C44.0876 44.6088 44.9244 45.4508 46.0526 46.2675C46.9102 46.8884 47.9233 47.4831 49.113 48.0522C49.7434 47.4193 50.5109 46.8176 51.3508 46.4564C52.7559 45.8467 54.122 46.0249 55.0973 46.1522L55.1607 46.1605C55.1764 46.163 55.1937 46.1662 55.2126 46.1691C55.3537 46.1908 55.5794 46.2256 55.7968 46.2758C57.8888 46.7352 60.4967 48.062 61.5566 50.5791L61.5624 50.5929C61.9443 51.5214 61.9794 52.4728 61.9218 53.2574C61.8655 54.0237 61.707 54.7707 61.5884 55.3297L61.5829 55.3554C61.3601 56.4366 60.8996 57.4554 60.2435 58.3458C59.433 59.4456 58.3756 60.2819 57.16 60.8047C55.9636 61.3192 54.632 61.5326 53.2866 61.3586C50.3347 60.9982 47.4722 60.0335 44.9005 58.4723C42.1206 56.7936 38.2633 54.1147 35.313 50.2208C32.1758 46.4624 30.5 42.1203 29.4704 39.0171ZM36.7113 49.099C39.4633 52.7454 43.111 55.2952 45.8241 56.9334C48.1737 58.3603 50.7959 59.2454 53.509 59.5757C54.5215 59.7078 55.534 59.5493 56.4557 59.1529C57.3774 58.7566 58.1822 58.1225 58.8053 57.2769C59.3116 56.5899 59.6621 55.8104 59.8308 54.9913C60.0775 53.8287 60.376 52.4151 59.9087 51.2789C59.1688 49.5218 57.2216 48.4252 55.4042 48.0289C55.2552 47.9939 55.096 47.9692 54.9446 47.9457C54.9246 47.9426 54.9047 47.9395 54.885 47.9364C53.8725 47.8043 52.9638 47.7118 52.0551 48.1082C51.1334 48.5045 50.2118 49.4029 49.5887 50.2352C47.7843 49.4689 46.2655 48.6366 45.0063 47.725C43.7471 46.8134 42.7606 45.8358 42.0336 44.8053C40.3331 42.9293 39.0999 40.0227 38.3859 36.1121C39.3205 35.6629 40.372 34.9363 40.9432 34.104C41.5273 33.2717 41.6182 32.3601 41.7091 31.3164C41.7221 31.1446 41.735 30.9597 41.735 30.7879C41.735 28.8855 41.086 26.7188 39.5542 25.6222C38.5852 24.9215 37.1904 24.9218 36.034 24.922C36.013 24.922 35.9922 24.922 35.9714 24.922C35.1536 24.922 34.3228 25.0938 33.5569 25.4637C32.6222 25.8997 31.8304 26.5735 31.2592 27.4058C30.688 28.2381 30.3246 29.2157 30.2337 30.2595C29.9871 33.0207 30.2986 35.8215 31.1683 38.4506C32.1809 41.5024 33.7776 45.598 36.7113 49.099Z" fill="white"/>
</g>
</g>
<defs>
<radialGradient id="paint0_radial_2287_26934" cx="0" cy="0" r="1" gradientUnits="userSpaceOnUse" gradientTransform="translate(5.6788 85.3399) scale(109.034 109.498)">
<stop offset="0.09" stop-color="#FA8F21"/>
<stop offset="0.78" stop-color="#D82D7E"/>
</radialGradient>
</defs>
</svg>
